<svg xmlns="http://www.w3.org/2000/svg" xmlns:xlink="http://www.w3.org/1999/xlink" width="668.118" height="481.64" viewBox="0 0 668.118 481.64">
  <defs>
    <linearGradient id="linear-gradient" x1="0.5" y1="1.001" x2="0.5" gradientUnits="objectBoundingBox">
      <stop offset="0" stop-color="gray" stop-opacity="0.251"/>
      <stop offset="0.54" stop-color="gray" stop-opacity="0.122"/>
      <stop offset="1" stop-color="gray" stop-opacity="0.102"/>
    </linearGradient>
  </defs>
  <g id="Group_55" data-name="Group 55" transform="translate(1458 -3702)">
    <g id="Group_54" data-name="Group 54" transform="translate(-1458 3702)">
      <path id="Path_382" data-name="Path 382" d="M63.3,484.53c10.572,45.186,32.952,84.247,68.316,103.2,73.51,39.346,239.281,19.049,363-4.263a283.3,283.3,0,0,0,161.1-92.09Z" transform="translate(-56.078 -222.684)" fill="#99d24a" opacity="0.1"/>
      <path id="Path_383" data-name="Path 383" d="M723.051,103.71H655.168a5.865,5.865,0,0,1,0-11.729H666.9a5.871,5.871,0,0,1,0-11.735h-8.38a5.871,5.871,0,0,1,0-11.735h35.431a93.744,93.744,0,0,0-27.642-7.618c-96.609-12.4-131.1-4.2-143.269,4.263A135.293,135.293,0,0,1,473.387,86.92c-59.607,12.3-171.081,27.094-272.118-4.738C151.052,66.349,113.734,93.1,91.36,137.77H734.835c-.84-12.983-3.356-24.968-7.972-35.467A5.822,5.822,0,0,1,723.051,103.71Z" transform="translate(-67.05 -54.557)" fill="#99d24a" opacity="0.1"/>
      <path id="Path_384" data-name="Path 384" d="M52.9,329.66a299.077,299.077,0,0,0,2.631,78.833l596,21.8a280.038,280.038,0,0,0,41.411-63.158Zm235.725,56.233H276.892a5.865,5.865,0,1,1,0,11.729H209.008a5.865,5.865,0,1,1,0-11.729h11.735a5.871,5.871,0,0,1,0-11.735h-8.38a5.871,5.871,0,0,1,0-11.735h67.883a5.871,5.871,0,0,1,0,11.735h8.38a5.871,5.871,0,0,1,0,11.735Z" transform="translate(-51.44 -162.127)" fill="#99d24a" opacity="0.1"/>
      <path id="Path_385" data-name="Path 385" d="M720.257,191.84,69.572,207.674C61.655,228.02,56.436,251.009,54,274.863H708.857a278.349,278.349,0,0,0,9.457-42.83A202.934,202.934,0,0,0,720.257,191.84ZM186.1,243.7H174.365a5.865,5.865,0,1,1,0,11.729H106.482a5.865,5.865,0,1,1,0-11.729h11.735a5.871,5.871,0,0,1,0-11.735h-8.38a5.871,5.871,0,0,1,0-11.735h67.883a5.871,5.871,0,0,1,0,11.735h8.38a5.871,5.871,0,0,1,0,11.735Z" transform="translate(-52.441 -108.237)" fill="#99d24a" opacity="0.1"/>
      <ellipse id="Ellipse_109" data-name="Ellipse 109" cx="212.431" cy="11.498" rx="212.431" ry="11.498" transform="translate(130.809 458.645)" fill="#99d24a" opacity="0.1"/>
      <path id="Path_386" data-name="Path 386" d="M898.742,687.74s3.343,4.379-1.547,10.962-8.922,12.18-7.308,16.3c0,0,7.375-12.271,13.4-12.442S905.344,695.121,898.742,687.74Z" transform="translate(-379.147 -302.143)" fill="#99d24a"/>
      <path id="Path_387" data-name="Path 387" d="M898.873,687.74a5.653,5.653,0,0,1,.682,1.37c5.858,6.888,8.976,13.312,3.349,13.471-5.249.152-11.54,9.531-13.044,11.9a4.681,4.681,0,0,0,.177.542s7.375-12.271,13.4-12.441S905.474,695.121,898.873,687.74Z" transform="translate(-379.277 -302.143)" opacity="0.1"/>
      <path id="Path_388" data-name="Path 388" d="M914.373,696.267c0,1.541-.171,2.789-.384,2.789s-.39-1.248-.39-2.789.219-.816.432-.816S914.373,694.726,914.373,696.267Z" transform="translate(-388.56 -305.091)" fill="#ffd037"/>
      <path id="Path_389" data-name="Path 389" d="M916.676,699.24c-1.352.737-2.527,1.181-2.631.993s.914-.938,2.266-1.675.816-.2.92,0S918.028,698.5,916.676,699.24Z" transform="translate(-388.731 -306.225)" fill="#ffd037"/>
      <path id="Path_390" data-name="Path 390" d="M870.817,687.74s-3.343,4.379,1.547,10.962,8.915,12.18,7.308,16.3c0,0-7.381-12.271-13.4-12.442S864.21,695.121,870.817,687.74Z" transform="translate(-368.894 -302.143)" fill="#99d24a"/>
      <path id="Path_391" data-name="Path 391" d="M870.809,687.74a5.4,5.4,0,0,0-.682,1.37c-5.858,6.888-8.982,13.312-3.349,13.471,5.243.152,11.571,9.531,13.044,11.9-.049.183-.11.359-.177.542,0,0-7.381-12.271-13.4-12.441S864.2,695.121,870.809,687.74Z" transform="translate(-368.886 -302.143)" opacity="0.1"/>
      <path id="Path_392" data-name="Path 392" d="M865.43,696.267c0,1.541.171,2.789.384,2.789s.39-1.248.39-2.789-.219-.816-.432-.816S865.43,694.726,865.43,696.267Z" transform="translate(-369.725 -305.091)" fill="#ffd037"/>
      <path id="Path_393" data-name="Path 393" d="M861.393,699.24c1.352.737,2.533,1.181,2.637.993s-.914-.938-2.265-1.675-.816-.2-.92,0S860.041,698.5,861.393,699.24Z" transform="translate(-367.825 -306.225)" fill="#ffd037"/>
      <path id="Path_394" data-name="Path 394" d="M867.18,728.348s9.354-.292,12.18-2.3,14.39-4.409,15.091-1.218,14.055,16.01,3.5,16.1-24.536-1.644-27.349-3.355S867.18,728.348,867.18,728.348Z" transform="translate(-370.409 -316.041)" fill="#a8a8a8"/>
      <path id="Path_395" data-name="Path 395" d="M898.132,743.084c-10.56.085-24.536-1.644-27.349-3.356-2.144-1.309-3-5.992-3.282-8.148h-.311s.609,7.539,3.4,9.257,16.79,3.441,27.349,3.356c3.045,0,4.1-1.108,4.044-2.716C901.561,742.463,900.4,743.065,898.132,743.084Z" transform="translate(-370.413 -319.285)" opacity="0.2"/>
      <path id="Path_396" data-name="Path 396" d="M306.14,729.973a7.143,7.143,0,0,0,2.338-3.526,3.159,3.159,0,0,0-1.632-3.587c-1.5-.573-3.1.469-4.318,1.516s-2.6,2.247-4.19,2.022a6.376,6.376,0,0,0,1.973-5.974,2.509,2.509,0,0,0-.548-1.218c-.834-.889-2.339-.512-3.337.189-3.167,2.229-4.05,6.534-4.068,10.4a19.55,19.55,0,0,1-.055-4.263c-.006-1.413-.4-3.045-1.608-3.794a4.871,4.871,0,0,0-2.436-.573c-1.425-.055-3.008.091-3.983,1.127-1.218,1.3-.9,3.465.158,4.872a15.8,15.8,0,0,0,4.117,3.3,9.135,9.135,0,0,1,2.947,2.807,3.5,3.5,0,0,1,.219.505h8.922A24.83,24.83,0,0,0,306.14,729.973Z" transform="translate(-142.178 -314.243)" fill="#99d24a"/>
      <path id="Path_397" data-name="Path 397" d="M202.085,693.452s-8.562-29.055,1.6-50.436a45.893,45.893,0,0,0,3.727-28.8,76.866,76.866,0,0,0-4.074-13.507" transform="translate(-109.027 -268.113)" fill="none" stroke="#535461" stroke-miterlimit="10" stroke-width="2"/>
      <path id="Path_398" data-name="Path 398" d="M208.382,574.5c0,3.563-6.443,13.891-6.443,13.891s-6.449-10.353-6.449-13.891a6.449,6.449,0,0,1,12.892,0Z" transform="translate(-107.766 -255.418)" fill="#99d24a"/>
      <path id="Path_399" data-name="Path 399" d="M225.839,604.6c-1.93,2.99-12.959,8.154-12.959,8.154s.2-12.18,2.138-15.164a6.449,6.449,0,0,1,10.822,7.009Z" transform="translate(-114.566 -265.801)" fill="#99d24a"/>
      <path id="Path_400" data-name="Path 400" d="M223.574,658.411c-3.179,1.6-15.3.493-15.3.493s6.321-10.408,9.5-12.009a6.448,6.448,0,1,1,5.8,11.517Z" transform="translate(-112.764 -285.901)" fill="#99d24a"/>
      <path id="Path_401" data-name="Path 401" d="M213.759,700.387c-2.862,2.119-15,3.045-15,3.045s4.47-11.321,7.308-13.44a6.449,6.449,0,1,1,7.667,10.353Z" transform="translate(-109.045 -302.452)" fill="#99d24a"/>
      <path id="Path_402" data-name="Path 402" d="M189.319,618.235c2.552,2.479,14.451,5.054,14.451,5.054s-2.917-11.82-5.481-14.3a6.449,6.449,0,1,0-8.983,9.25Z" transform="translate(-104.537 -270.59)" fill="#99d24a"/>
      <path id="Path_403" data-name="Path 403" d="M177.291,666.551c3.179,1.6,15.3.493,15.3.493s-6.321-10.4-9.5-12.009a6.448,6.448,0,1,0-5.8,11.517Z" transform="translate(-99.263 -289.084)" fill="#99d24a"/>
      <path id="Path_404" data-name="Path 404" d="M173.826,716.1c2.862,2.113,14.993,3.045,14.993,3.045s-4.464-11.321-7.308-13.44a6.449,6.449,0,0,0-7.667,10.353Z" transform="translate(-98.379 -308.743)" fill="#99d24a"/>
      <path id="Path_405" data-name="Path 405" d="M208.382,574.5c0,3.563-6.443,13.891-6.443,13.891s-6.449-10.353-6.449-13.891a6.449,6.449,0,0,1,12.892,0Z" transform="translate(-107.766 -255.418)" fill="#99d24a"/>
      <path id="Path_406" data-name="Path 406" d="M225.839,604.6c-1.93,2.99-12.959,8.154-12.959,8.154s.2-12.18,2.138-15.164a6.449,6.449,0,0,1,10.822,7.009Z" transform="translate(-114.566 -265.801)" fill="#99d24a"/>
      <path id="Path_407" data-name="Path 407" d="M223.574,658.411c-3.179,1.6-15.3.493-15.3.493s6.321-10.408,9.5-12.009a6.448,6.448,0,1,1,5.8,11.517Z" transform="translate(-112.764 -285.901)" fill="#99d24a"/>
      <path id="Path_408" data-name="Path 408" d="M213.759,700.387c-2.862,2.119-15,3.045-15,3.045s4.47-11.321,7.308-13.44a6.449,6.449,0,1,1,7.667,10.353Z" transform="translate(-109.045 -302.452)" fill="#99d24a"/>
      <path id="Path_409" data-name="Path 409" d="M189.319,618.235c2.552,2.479,14.451,5.054,14.451,5.054s-2.917-11.82-5.481-14.3a6.449,6.449,0,1,0-8.983,9.25Z" transform="translate(-104.537 -270.59)" fill="#99d24a"/>
      <path id="Path_410" data-name="Path 410" d="M177.291,666.551c3.179,1.6,15.3.493,15.3.493s-6.321-10.4-9.5-12.009a6.448,6.448,0,1,0-5.8,11.517Z" transform="translate(-99.263 -289.084)" fill="#99d24a"/>
      <path id="Path_411" data-name="Path 411" d="M173.826,716.1c2.862,2.113,14.993,3.045,14.993,3.045s-4.464-11.321-7.308-13.44a6.449,6.449,0,0,0-7.667,10.353Z" transform="translate(-98.379 -308.743)" fill="#99d24a"/>
      <path id="Path_412" data-name="Path 412" d="M171,743.473s10.426-2.07,13.2-4.829,15.285-7.588,16.674-4.141,18.757,15.176,6.942,17.246-27.788,2.759-31.259,1.376S171,743.473,171,743.473Z" transform="translate(-98.19 -319.961)" fill="#a8a8a8"/>
      <path id="Path_413" data-name="Path 413" d="M207.837,756.934c-11.808,2.071-27.788,2.759-31.259,1.382-2.643-1.054-4.482-6.09-5.207-8.447l-.371.079s2.089,8.276,5.56,9.652,19.451.688,31.259-1.376c3.41-.609,4.385-2,4.019-3.776C211.564,755.6,210.377,756.49,207.837,756.934Z" transform="translate(-98.19 -326.437)" opacity="0.2"/>
      <path id="Path_414" data-name="Path 414" d="M611.309,242.443c3.27-3.654,1.991-9.348,1.991-9.348s-15.432-39.328-17.143-39.76-6-10.353-6-10.353S549,143.867,547.524,143.867s-16.5-10.8-18.428-11.016a25.2,25.2,0,0,1-8.148-3.045c-3.215-1.748-35.8.219-37.081,1.73s-7.308,2.594-7.308,2.594-12.216.646-13.934,2.807-14.354,3.307-14.354,3.307-6.218,2.314,2.223,8.459h0c-2.7.426-5.865.755-9.074.987-.8.055-1.62.11-2.436.152H438.5a7.966,7.966,0,0,0-3-4.025,25.131,25.131,0,0,0-2.844-1.321,22.7,22.7,0,0,1-4.214-2.893,138.1,138.1,0,0,0-19.926-13.2,9.542,9.542,0,0,0-3.55-1.334c-2.613-.25-4.945,1.583-7.5,2.2-4.494,1.078-9.025-1.662-13.647-1.705-5.773-.055-11.029,4.439-12.789,9.981-.652,2.052-.944,4.336-2.351,5.962-1.827,2.125-4.914,2.436-7.417,3.7a11.193,11.193,0,0,0-6.017,9.92v.049a5.74,5.74,0,0,0,.055.968c.286,2.606,1.492,5.012,2.375,7.484a30.955,30.955,0,0,1,1.705,7.856.4.4,0,0,1,0,.085c.037.445.067.889.085,1.34v1.577c0,2.326-.079,4.671-.073,7v1.431a8.208,8.208,0,0,0,.037.938v.329a8.287,8.287,0,0,0,.073.865,1.534,1.534,0,0,0,.03.371,6.282,6.282,0,0,0,.1.828l.055.39c.043.274.091.548.14.822l.073.378c.061.292.134.609.207.877.03.1.049.2.073.3q.164.609.365,1.169a17.161,17.161,0,0,0,11.364,10.712,10.554,10.554,0,0,0,3.014.378,6.264,6.264,0,0,0,4.659-1.857c.268.3.53.609.81.913a36.5,36.5,0,0,0,59.272-7.917c.639-.14,1.273-.268,1.912-.39,1.108-.207,2.223-.4,3.343-.609l1.078-.171h0l.426-.073c5.481-.865,10.8-1.443,14.616-1.827l-15.066,1.87s-3.654,17.545-4.707,19.487,3.654,5.182,3.654,5.182S449,222.846,449,224.362s4.714,5.834,6,8.209a3.653,3.653,0,0,0,.609.822,8.618,8.618,0,0,0-2.594,1.577c-2.978,2.82-1.985,7.765-3.349,11.638-.853,2.436-2.637,4.409-4.354,6.327a8.635,8.635,0,0,0-1.535,2.125,5.226,5.226,0,0,0-.408,1.632h0a7.992,7.992,0,0,0-.037.938v.11a3.537,3.537,0,0,0,.049.719v.311c.3,2.546,1.163,5.006,1.425,7.551s-.055,5.109.469,7.588a11.318,11.318,0,0,0,.84,2.5l-8.721,9.744s-.055.481-.073,1.273c-7.271,6.035-18.513,17.423-14.5,27.465q.658,1.65,1.218,3.161c-2.954,1.882-3.928,4.117.5,6.346.7.353,1.376.658,2.04.932,2.272,6.668,3.161,8.526,6.967,3.611.408-.536.883-1.218,1.4-1.955a14.82,14.82,0,0,0,8.459-2.588s15-.865,18.878,1.516c1.943,1.218,6.51,1.462,10.554,1.431a110.538,110.538,0,0,0,.609,13.044s-.646,18.367,1.072,22.258,2.667,10.59,2.667,10.59-2.88,6.48-1.169,9.939-1.5,8.428-1.5,8.428v12.746l1.218-.085c-.091.859-.207,1.76-.359,2.619-.353,1.991-.883,3.776-1.7,4.354-2.144,1.541-2.357,9.744-2.357,9.744s-3.429,9.945-2.789,11.674-4.068,5.182-3,7.777,3.264,19.012,5.17,23.75-3.885,3.459-3.885,3.459l1.711,12.314s1.717,12.533.432,13.4-8.678,7.131-3.593,10.8c.4.286.8.548,1.218.8a13.185,13.185,0,0,1-.043,1.705c-.1.968-.341,1.742-.883,1.827-1.51.219-4.512,1.73-5.146,1.084s-4.263,1.632-7.917,2.375l-.505.079-4.744-1.218a33.385,33.385,0,0,0-21.436-.792s-3.441.536-5.109,3.106c-.846,1.315-1.218,3.167-.463,5.749,2.29,7.637,17.9,10.267,17.9,10.267s5.408,1.114,11.906,2.588H449.5a7.168,7.168,0,1,0,2.436.445c7.308,1.681,15.4,3.727,18.69,5.17a57.184,57.184,0,0,0,7.509,2.253,7.125,7.125,0,0,0,13.264,2.984c9.945,2.077,19.524,3.837,19.524,3.837l16,.262h.11a7.125,7.125,0,1,0,.1,0l24.219.4a7.144,7.144,0,1,0,13.787.225l21.363.347,4.263-4.689a3.791,3.791,0,0,0,.42-1.468c.128-1.541-.67-3.879-6.126-4.872-.4-.073-11.534.1-21.369.268v-3.861s-.274-2.125-.445-4.628c-.049-.737-.091-1.5-.11-2.259a5.864,5.864,0,0,0,1.827.834c4.074.652,9.646-11.236,9.646-11.236a61.906,61.906,0,0,1,1.285-12.1c1.285-5.4,3.654-23.555,3.654-23.555l5.152-21.82s2.131-44.517,1.06-46.246,1.291-4.756,1.291-4.756,1.711-9.506-.859-12.746,1.5-6.486,1.5-6.486,1.072-11.236-1.93-15.553,1.407-7.344,1.407-7.344l1.072-17.5c4.5-4.537,8.568-31.545,8.788-37.379a24.007,24.007,0,0,1,2.144-9.512s3-4.537,3.429-7.564,3.654-9.287,3.654-9.287l5.572-20.748c2.247-8.367,1.675-14.555.183-18.964C611.778,243.551,611.546,242.985,611.309,242.443Zm-100.671,1.218c3.429,2.162,2.357,2.807,3.429,4.1s.213,1.078-.646,3.24-.213,1.516.213,3.891.219,2.375.219,2.375l1.072.152-1.492,10.03c-2.436,1.589-3.55,4.634-4.056,7.777-1.437-1.876-2.887-3.824-4.184-5.639a8.315,8.315,0,0,0,.371-3.288c.049-3.654,1.413-7.143,2.04-10.742a27.142,27.142,0,0,0-.347-11.029,16.756,16.756,0,0,0-1.431-3.916c1.388.926,3.148,2.022,4.811,3.069Zm3.855,211.761s2.71-1.827,5.341-3.489c.883,6.413,1.717,13.081,2.308,19.11-.944-2.095-1.6-3.52-1.6-3.52a7.247,7.247,0,0,1-1.656-4.1c-.1-2.351-4.391-7.972-4.391-7.972ZM498.422,233.314a5.19,5.19,0,0,1,2.29,1.784c-.755-.609-1.516-1.218-2.3-1.79ZM459.2,313.261c-2.472.78-10.852.664-15.834.371,1.863-3.185,3.715-6.425,5.359-9.33a19.8,19.8,0,0,0,2.954.53L467.991,290.5a28.1,28.1,0,0,0,18.939-.122l.445.694c.189.3.39.609.609.95l-.408-.664s-6.3,3.751-5.657,5.481-.853,6.047-3.209,10.675c-.609,1.157-1.139,2.3-1.65,3.453C471.724,311.471,461.67,312.482,459.2,313.261ZM490.152,512.91l-.091-1.711c1.035-.225,1.717-.432,1.717-.432a67.411,67.411,0,0,0-1.072-7.564c-.645-2.594-.311-1.729,2.2-3.654s0-23.75,0-23.75,1.218-1.516,3.148,2.375,3.867,6.266,4.513,6.48-2.576,4.543,0,8.648a24.847,24.847,0,0,1,3.209,8.642s-1.711,6.863.859,9.914a3.773,3.773,0,0,0,1.218.834v1.736a21.248,21.248,0,0,1-.055,2.32.859.859,0,0,1-1.37.536c-.664-.432-4.872.536-4.586,3.246a19.93,19.93,0,0,1-3.362,3.148l-5.84-1.51Z" transform="translate(-170.235 -82.9)" fill="url(#linear-gradient)"/>
      <path id="Path_415" data-name="Path 415" d="M490.347,391.472s-2.04,16.717,14.141,18.428l2.436-11.571-5.1-6.857-7.3-2.473Z" transform="translate(-223.028 -185.33)" fill="#99d24a"/>
      <path id="Path_416" data-name="Path 416" d="M494.524,389l-4.178,2.466s-2.04,16.717,14.141,18.428" transform="translate(-223.028 -185.33)" opacity="0.1"/>
      <path id="Path_417" data-name="Path 417" d="M508.99,209.671s-10.919.67-21.869,2.485q-1.681.286-3.343.609c-.646.122-1.279.25-1.912.39-5.737,1.181-10.962,2.716-14.007,4.677-3.654,2.345-4.872-3.971-4.988-12.746-.049-3.088.055-6.473.219-9.9.213-3.958.524-7.965.853-11.571.725-7.99,1.559-14.2,1.559-14.2s3.824,0,8.934-.177l1.644-.061c1.6-.061,3.3-.146,5.012-.25.81-.043,1.626-.091,2.436-.152,3.24-.231,6.437-.56,9.135-.987a19.947,19.947,0,0,0,6.473-1.827C504.922,162.517,508.99,209.671,508.99,209.671Z" transform="translate(-212.313 -98.049)" fill="#f8bdc5"/>
      <path id="Path_418" data-name="Path 418" d="M614.5,336.731l-2.131,14.147s-4.647,5.785-4.038,9S614.3,505.194,614.3,505.194s10.5,60.009,6.857,67.725-.213,25.723-.213,25.723l21.862-3.429,7.308-262.344Z" transform="translate(-269.174 -163.382)" fill="#474463"/>
      <path id="Path_419" data-name="Path 419" d="M614.5,336.731l-2.131,14.147s-4.647,5.785-4.038,9S614.3,505.194,614.3,505.194s10.5,60.009,6.857,67.725-.213,25.723-.213,25.723l21.862-3.429,7.308-262.344Z" transform="translate(-269.174 -163.382)" opacity="0.1"/>
      <path id="Path_420" data-name="Path 420" d="M670.222,764.673c-.694,1.151-.639,4.537-.445,7.417.171,2.479.445,4.586.445,4.586v14.573S646.862,783.107,634,774.533c-5.3-3.538-6.815-6.827-6.522-9.458.426-3.745,4.506-6.187,6.522-6.187,1.924,0,8-3.355,12.983-6.321,3.916-2.32,7.168-4.4,7.168-4.4S671.507,762.53,670.222,764.673Z" transform="translate(-276.668 -325.772)" fill="#575988"/>
      <path id="Path_421" data-name="Path 421" d="M682.769,764.673c-.694,1.151-.639,4.537-.445,7.417-5.195-2.436-21.278-18.038-22.794-19.524,3.916-2.32,7.168-4.4,7.168-4.4S684.054,762.53,682.769,764.673Z" transform="translate(-289.214 -325.772)" opacity="0.1"/>
      <path id="Path_422" data-name="Path 422" d="M710.524,337.523,704.952,358.1s-3.215,6.212-3.654,9.214-3.429,7.5-3.429,7.5a23.749,23.749,0,0,0-2.144,9.427c-.213,5.791-4.263,32.581-8.788,37.081l-1.072,17.362s-4.263,3-1.285,7.308,1.93,15.432,1.93,15.432-4.074,3.215-1.5,6.431.853,12.649.853,12.649-2.357,3-1.285,4.714-1.06,45.869-1.06,45.869l-5.152,21.643s-2.363,18.008-3.654,23.367a60.368,60.368,0,0,0-1.285,12s-5.572,11.79-9.646,11.15S640,579.307,640,579.307l2.783-65.161s2.357-27.648.859-33.007-2.57-32.148-2.57-32.148l-3-42.221-29.974-47.154s-2.174-13.72,4.038-17.788l1.127-7.411,1.017-6.735,35.583-3.861,54.437-14.141s4.2,2.588,6.394,9.049C712.193,323.084,712.771,329.222,710.524,337.523Z" transform="translate(-268.957 -154.315)" fill="#474463"/>
      <path id="Path_423" data-name="Path 423" d="M600.065,376.316s-25.291,31.058-24.219,22.38c.67-5.45-2.789-12.107-5.481-16.315-1.589-2.5-2.9-4.141-2.9-4.141s15.432-28.287,16.29-24.432c.274,1.218,2.058,4.013,4.354,7.2C592.946,367.7,600.065,376.316,600.065,376.316Z" transform="translate(-253.213 -171.428)" fill="#ffc1c8"/>
      <path id="Path_424" data-name="Path 424" d="M670.222,799.079v3.045S646.862,793.982,634,785.407c-5.3-3.538-6.815-6.827-6.522-9.457,7.1,3.593,20.31,10.444,24.311,13.532C655.187,792.1,663.968,796.247,670.222,799.079Z" transform="translate(-276.668 -336.635)" fill="#fff" opacity="0.3"/>
      <circle id="Ellipse_110" data-name="Ellipse 110" cx="7.143" cy="7.143" r="7.143" transform="translate(380.912 459.722)" fill="#474463"/>
      <circle id="Ellipse_111" data-name="Ellipse 111" cx="7.143" cy="7.143" r="7.143" transform="translate(307.944 449.693)" fill="#474463"/>
      <path id="Path_425" data-name="Path 425" d="M632.853,787.976a3.77,3.77,0,0,1-.42,1.456l-4.263,4.646-59.583-.956-16.022-.262s-33.725-6.139-40.3-9-32.4-8.1-32.4-8.1-15.6-2.619-17.892-10.188a6.548,6.548,0,0,1,.463-5.7c1.663-2.552,5.109-3.088,5.109-3.088a33.677,33.677,0,0,1,21.436.792l99.873,25.693,1.547.4s35.6-.664,36.32-.536C632.183,784.128,632.981,786.448,632.853,787.976Z" transform="translate(-211.803 -328.601)" fill="#99d24a"/>
      <path id="Path_426" data-name="Path 426" d="M632.853,790.844c-5.992-.779-16.443-1.93-19.134-.822,0,0-19.006-2.351-45.156,5.968l-16-.262s-33.725-6.138-40.3-9-32.4-8.1-32.4-8.1-15.6-2.619-17.892-10.188a6.548,6.548,0,0,1,.463-5.7c1.066,3.106,3.118,7.606,6.394,8.867,5.146,1.979,26.3,6.011,26.3,6.011l41.861,10.249s24.171,5.243,33.579,1.827c3.855-1.388,11.09-2.625,18.269-3.593l1.547.4s35.6-.664,36.32-.536C632.183,787,632.981,789.316,632.853,790.844Z" transform="translate(-211.803 -331.469)" fill="#fff" opacity="0.3"/>
      <path id="Path_427" data-name="Path 427" d="M620.033,781.138a19.791,19.791,0,0,1-.335,2.673s-23.677.846-36-.98c-3.4-.505-5.329-1.6-6.285-2.9a4.452,4.452,0,0,1-.445-4.263,6.7,6.7,0,0,1,.518-1.145c.92-1.608,2.332-2.746,3.106-2.594,2.144.432,5.822-3.965,5.822-3.965-.292-2.686,3.928-3.654,4.586-3.215a.859.859,0,0,0,1.37-.536c.043-.2.055-1.169.055-2.3,0-1.888-.055-4.263-.055-4.263l23.8,2.893.944,4.549c.865,4.056,2.071,9.628,2.588,11.534a13.759,13.759,0,0,1,.335,4.513Z" transform="translate(-256.794 -329.479)" fill="#474463"/>
      <path id="Path_428" data-name="Path 428" d="M620.543,795.352a19.793,19.793,0,0,1-.335,2.673s-23.677.846-36-.98c-3.4-.505-5.329-1.6-6.285-2.9,3.161-.189,7.271-.292,9.817.329C591.366,795.377,613.077,795.377,620.543,795.352Z" transform="translate(-257.303 -343.693)" opacity="0.1"/>
      <path id="Path_429" data-name="Path 429" d="M544,769.832a1.218,1.218,0,0,1-.518,1.145c-3,2.314-17.374-.2-17.374-.2s-29.377-1.827-33.768-4.823a3.1,3.1,0,0,1-.968-1.017c-1.827-3.3,4.787-8.842,5.359-8.842s8.471-1.078,9-1.181c3.654-.737,7.308-3,7.917-2.357s3.654-.859,5.14-1.072c.542-.079.792-.847.883-1.827a20.307,20.307,0,0,0-.134-3.977L543.005,752l.207,3.739.676,12.448.085,1.529A.566.566,0,0,1,544,769.832Z" transform="translate(-223.339 -324.798)" fill="#474463"/>
      <path id="Path_430" data-name="Path 430" d="M526.356,783.14s-29.377-1.827-33.768-4.823a3.1,3.1,0,0,1-.968-1.017c5.95.487,15.87,1.309,17.661,1.766,2.576.609,17.051,1.5,17.051,1.5h17.8l.085,1.529C544.991,786.4,526.356,783.14,526.356,783.14Z" transform="translate(-223.558 -337.162)" opacity="0.1"/>
      <circle id="Ellipse_112" data-name="Ellipse 112" cx="7.143" cy="7.143" r="7.143" transform="translate(272.172 449.693)" fill="#474463"/>
      <circle id="Ellipse_113" data-name="Ellipse 113" cx="7.143" cy="7.143" r="7.143" transform="translate(349.757 464.521)" fill="#474463"/>
      <path id="Path_431" data-name="Path 431" d="M497.429,398.852s-1.352,2.436-3.386,6.053c-4.872,8.6-13.635,23.842-17.4,28.665-5.359,6.857-4.927.432-10.718-13.927-4.3-10.682,8.934-22.9,16.01-28.458,2.436-1.93,4.141-3.045,4.141-3.045Z" transform="translate(-213.18 -184.994)" fill="#f8bdc5"/>
      <path id="Path_432" data-name="Path 432" d="M523.068,432.83s-17.788,1.5-21.217,2.57-18.215.426-19.487,0-26.582,5.359-15.005,11.144,18.878,0,18.878,0,15.005-.859,18.878,1.5,18,1.072,18,1.072Z" transform="translate(-212.89 -202.469)" fill="#ffc1c8"/>
      <path id="Path_433" data-name="Path 433" d="M485.529,199.395c2.192,5.609.822,10.493-1.76,15.5-6.467,1.218-12.551,2.893-15.937,5.067-9.646,6.218-2.357-48.438-2.357-48.438s4.665,0,10.578-.238C474.262,179.463,481.047,187.946,485.529,199.395Z" transform="translate(-212.303 -100.202)" opacity="0.1"/>
      <path id="Path_434" data-name="Path 434" d="M454.074,191.945a36.539,36.539,0,1,1-3.654-15.974,36.539,36.539,0,0,1,3.654,15.974Z" transform="translate(-180.301 -93.97)" fill="#f8bdc5"/>
      <path id="Path_435" data-name="Path 435" d="M714.273,318.7a8.367,8.367,0,0,1-4.872,3.38c-8.361,2.357-67.3,16.5-71.16,15.645-3.4-.755-18.014-2.856-21.381-3.337l1.017-6.735,35.583-3.861L707.9,309.65S712.074,312.238,714.273,318.7Z" transform="translate(-272.529 -154.303)" opacity="0.1"/>
      <path id="Path_436" data-name="Path 436" d="M525.233,209.646a205.439,205.439,0,0,0-20.8,2.314A1.431,1.431,0,0,0,504.4,211l14.25-1.76s-2.083-33.494-9.744-41.52a19.947,19.947,0,0,0,6.474-1.827C521.165,162.493,525.233,209.646,525.233,209.646Z" transform="translate(-228.556 -98.024)" opacity="0.1"/>
      <path id="Path_437" data-name="Path 437" d="M503.49,148.169s12.649-1.139,14.36-3.282,13.934-2.783,13.934-2.783,6-1.072,7.308-2.576,33.859-3.429,37.075-1.711a25.75,25.75,0,0,0,8.148,3c1.93.219,16.93,10.925,18.428,10.925s42.629,38.8,42.629,38.8,4.263,9.859,6,10.286,17.149,39.438,17.149,39.438,2.144,9.427-6.212,11.79-67.3,16.5-71.16,15.645-22.076-3.429-22.076-3.429.213,0-.213-2.357-1.072-1.717-.219-3.861,1.717-1.931.646-3.215,0-1.93-3.429-4.074-7.308-4.5-7.5-5.14-3.215-4.933-4.714-5.146-43.512-12-43.512-12l-9.859-3.215s-4.714-3.215-3.654-5.14,4.707-19.335,4.707-19.335l15.072-1.857s-2.247-36.3-10.688-42.385S503.49,148.169,503.49,148.169Z" transform="translate(-225.453 -86.849)" fill="#99d24a"/>
      <path id="Path_438" data-name="Path 438" d="M508.249,398.852s-1.352,2.436-3.386,6.053c-.317-11.181-8.136-13.349-12.113-13.72,2.436-1.93,4.141-3.045,4.141-3.045Z" transform="translate(-224 -184.994)" opacity="0.1"/>
      <path id="Path_439" data-name="Path 439" d="M496.851,272.34l1.035,5.785s4.074,4.933,4.074,6.431,4.714,5.785,6,8.142,5.785,2.789,4.068,6.863-11.571,35.15-11.571,35.15L490.39,345.856s16.717-1.5,14.141,18.428l21.649-18.878,16.954-30.845s-16.5-31.29-17.143-33.859S496.851,272.34,496.851,272.34Z" transform="translate(-223.077 -139.714)" fill="#99d24a"/>
      <path id="Path_440" data-name="Path 440" d="M583.31,283.014s13.714-9.646,13.714-10.718S583.31,283.014,583.31,283.014Z" transform="translate(-259.411 -139.67)" opacity="0.1"/>
      <path id="Path_441" data-name="Path 441" d="M621,305.478s7.308-1.717,7.917-5.572S621,305.478,621,305.478Z" transform="translate(-274.148 -150.131)" opacity="0.1"/>
      <path id="Path_442" data-name="Path 442" d="M630.82,321.95s10.292-5.1,9.859-5.98S630.82,321.95,630.82,321.95Z" transform="translate(-277.988 -156.743)" opacity="0.1"/>
      <path id="Path_443" data-name="Path 443" d="M719.2,272.23s-4.263,2.783-3,5.389S719.2,272.23,719.2,272.23Z" transform="translate(-311.281 -139.671)" opacity="0.1"/>
      <path id="Path_444" data-name="Path 444" d="M735.707,274.1s-12.143,11.571-9.4,11.79S735.707,274.1,735.707,274.1Z" transform="translate(-315.168 -140.402)" opacity="0.1"/>
      <path id="Path_445" data-name="Path 445" d="M696.64,568.68s15.645,3,16.071,4.074S696.64,568.68,696.64,568.68Z" transform="translate(-303.725 -255.588)" opacity="0.1"/>
      <path id="Path_446" data-name="Path 446" d="M705.79,585.57s8.355,5.146,8.568,6.644S705.79,585.57,705.79,585.57Z" transform="translate(-307.303 -262.193)" opacity="0.1"/>
      <path id="Path_447" data-name="Path 447" d="M702.62,604.58s1.285,5.785,3.429,6.644S702.62,604.58,702.62,604.58Z" transform="translate(-306.063 -269.626)" opacity="0.1"/>
      <path id="Path_448" data-name="Path 448" d="M450.344,175.755a.411.411,0,0,1-.03.189c-.292,1.906-1.072,3.971-2.862,4.6a4.555,4.555,0,0,1-3.246-.3c-3.045-1.334-5.755-4.537-9.007-3.764a5.394,5.394,0,0,0-3.4,2.984,14.983,14.983,0,0,0-1.218,3.27c-.609,2.387-1.1,4.981-.164,7.253a7.4,7.4,0,0,0,.548,1.072c.865,1.382,2.083,2.558,2.935,3.952,1.06,1.742,1.334,4.354-.317,5.548a3.343,3.343,0,0,1-2.838.4,16.881,16.881,0,0,1-3.465-1.535c-2.156-1.127-4.872-1.827-6.918-.524-.706.438-1.273,1.072-1.949,1.535a7.028,7.028,0,0,1-4.707.98c-3.873-.4-5.322-2.85-8.282-4.75-2.168-1.4-6.7-2-7.99.865-.828,1.827.4,4.129-.408,5.992s-3.386,2.436-4.58,4.165c-1.571,2.278-.11,5.572-1.261,8.1a4.129,4.129,0,0,1-.7,1.072A36.649,36.649,0,0,1,442.311,165.1l1.644-.061c1.6-.061,3.3-.146,5.012-.25a13.951,13.951,0,0,1,.944,2.673,22.289,22.289,0,0,1,.432,8.294Z" transform="translate(-180.187 -93.943)" opacity="0.1"/>
      <path id="Path_449" data-name="Path 449" d="M386.629,188.283c-.834,1.827.4,4.129-.408,5.986s-3.4,2.436-4.58,4.165c-1.577,2.284-.116,5.578-1.261,8.1-1.315,2.88-5.286,3.331-8.331,2.491A17.052,17.052,0,0,1,360.686,198.4c-2.064-5.877-.731-12.344-1.267-18.55a30.772,30.772,0,0,0-1.705-7.789c-.883-2.436-2.089-4.835-2.375-7.423A11.035,11.035,0,0,1,361.3,153.79c2.509-1.218,5.6-1.565,7.424-3.654,1.4-1.62,1.7-3.879,2.351-5.919,1.76-5.481,7.015-9.951,12.789-9.9,4.616.037,9.135,2.759,13.647,1.687,2.552-.609,4.872-2.436,7.5-2.174a9.519,9.519,0,0,1,3.55,1.321,138.36,138.36,0,0,1,19.92,13.093,22.423,22.423,0,0,0,4.22,2.868,26.184,26.184,0,0,1,2.844,1.309c1.967,1.218,3,3.538,3.556,5.791a22.123,22.123,0,0,1,.451,8.294c-.268,1.955-1.035,4.147-2.893,4.8A4.549,4.549,0,0,1,433.4,171c-3.045-1.321-5.749-4.525-9-3.757-2.655.609-3.934,3.617-4.628,6.254-.609,2.387-1.108,4.981-.164,7.259.779,1.888,2.436,3.27,3.477,5.018s1.34,4.36-.317,5.548c-1.827,1.322-4.306-.085-6.309-1.133-2.144-1.127-4.872-1.827-6.912-.53-.7.438-1.267,1.072-1.949,1.541a7.088,7.088,0,0,1-4.7.974c-3.879-.4-5.329-2.85-8.282-4.75C392.445,186.011,387.926,185.414,386.629,188.283Z" transform="translate(-170.251 -85.546)" fill="#474463"/>
      <path id="Path_450" data-name="Path 450" d="M588.114,360.978c-.164.913-1.419,1.017-1.675,1.906-2.436,8.593-7.795,16.321-16.065,19.487-1.589-2.5-2.9-4.141-2.9-4.141S582.9,349.943,583.76,353.8C584.034,355,585.819,357.787,588.114,360.978Z" transform="translate(-253.217 -171.425)" opacity="0.1"/>
      <path id="Path_451" data-name="Path 451" d="M565.787,337.937a28.19,28.19,0,1,1-8.258-20.032A28.295,28.295,0,0,1,565.787,337.937Z" transform="translate(-230.432 -154.303)" fill="#ffc1c8"/>
      <path id="Path_452" data-name="Path 452" d="M561.374,752.025l.207,3.739c-2.479.548-7.192,1.267-9.939-.414-3.55-2.174-8.794-2.7-13.6-5.663a20.3,20.3,0,0,0-.134-3.977Z" transform="translate(-241.659 -324.81)" opacity="0.1"/>
      <path id="Path_453" data-name="Path 453" d="M627.231,765.1c-.164.834-.317,1.346-.317,1.346s-18.909-1.937-24.359-4.549c0-1.888-.055-4.263-.055-4.263l23.8,2.893Z" transform="translate(-266.914 -329.471)" opacity="0.1"/>
      <path id="Path_454" data-name="Path 454" d="M595.94,609.129c-1.285,3.429-1.93,4.074-.639,5.785s.639,10.718-1.407,11.571-9.744,6-9.744,6,4.263,5.572,4.391,7.917a7.174,7.174,0,0,0,1.656,4.074s6.6,14.147,7.917,18.647,2.521,11.571,2.521,11.571-2.308,6.431-.713,10.079,0,9,0,9-23.026-2.357-25.577-5.383-.853-9.835-.853-9.835a24.622,24.622,0,0,0-3.215-8.575c-2.576-4.074.609-8.355,0-8.574s-2.576-2.57-4.513-6.425-3.142-2.363-3.142-2.363,2.509,21.649,0,23.58-2.85,1.072-2.2,3.654a66.254,66.254,0,0,1,1.072,7.5s-7.716,2.357-11.571,0-9.658-2.789-14.756-6.431,2.308-9.859,3.593-10.718-.426-13.288-.426-13.288L536.613,644.7s5.785,1.285,3.885-3.429-4.1-21-5.17-23.574,3.654-6,3-7.716,2.783-11.571,2.783-11.571.219-8.142,2.357-9.671c.816-.573,1.346-2.351,1.7-4.318a53.681,53.681,0,0,0,.664-7.016s49.078-3.429,57.007,1.285c3.569,2.119,3.319,6.023,1.827,9.975-1.827,4.823-5.578,9.744-6.522,11.528C596.373,603.483,597.225,605.7,595.94,609.129Z" transform="translate(-239.893 -258.53)" fill="#575988"/>
      <path id="Path_455" data-name="Path 455" d="M612.139,588.667c-6.09,1.711-14.2,4.226-15.523,5.67-2.144,2.363-9.433-13.288-9.433-13.288s.432,11.766-9.214,6.845c-8.349-4.263-21.826-3.7-25.309-3.471a53.638,53.638,0,0,0,.664-7.015s49.078-3.429,57.007,1.285C613.9,580.811,613.65,584.715,612.139,588.667Z" transform="translate(-247.426 -258.53)" opacity="0.1"/>
      <path id="Path_456" data-name="Path 456" d="M585.56,381.567s4.263-5.146,5.146-3.215,5.913,5.785,5.913,5.785,1.443,4.5,3.983,5.146,21.613,26.363,21.613,26.363l-6.863,13.927-5.572,33.865s.244,5.359-1.273,7.308-7.308,1.5-4.622,3.855,6.54,4.5,8.684,15.225a99.635,99.635,0,0,0,4.714,16.93s-20.145,5.146-22.289,7.5-9.433-13.288-9.433-13.288.432,11.759-9.214,6.845S550.2,504.4,550.2,504.4V491.732s3.215-4.933,1.5-8.361,1.169-9.859,1.169-9.859-.956-6.644-2.673-10.5-1.072-22.076-1.072-22.076-1.3-11.79-.116-17.794a53.223,53.223,0,0,1,5.28-14.908c2.357-4.592,3.849-8.879,3.209-10.6s5.657-5.432,5.657-5.432l3.489,5.645.889,3.374S585.993,388,585.56,381.567Z" transform="translate(-245.803 -180.997)" fill="#dce6f2"/>
      <path id="Path_457" data-name="Path 457" d="M628.357,432.83s12,11.784,13.288,13.714,5.59,11.967.018,15.011-27.4,7.74-29.572,6.12-15.225,1.827-15.225,1.827-21.838,5.359-17.125-3.429,15.864-7.308,15.864-7.308,18.014-.03,19.938-1.827,16.443-5.651,13.154-13.592S628.357,432.83,628.357,432.83Z" transform="translate(-257.755 -202.469)" fill="#ffc1c8"/>
      <path id="Path_458" data-name="Path 458" d="M585.83,519.41s-27.958,24.219-25.175,24.219S585.83,519.41,585.83,519.41Z" transform="translate(-250.476 -236.323)" opacity="0.1"/>
      <path id="Path_459" data-name="Path 459" d="M628,535.6s-8.885,2.138-7.168,3.429S628,535.6,628,535.6Z" transform="translate(-273.995 -242.653)" opacity="0.1"/>
      <path id="Path_460" data-name="Path 460" d="M581.29,439.16s11.09.993,9.135,4.464S581.29,439.16,581.29,439.16Z" transform="translate(-258.621 -204.944)" opacity="0.1"/>
      <path id="Path_461" data-name="Path 461" d="M569.511,610.09s-1.5,4.36,0,6.7,0,7.917,0,7.917v19.487s-.207,14.147,4.927,19.073Z" transform="translate(-253.754 -271.78)" opacity="0.1"/>
      <path id="Path_462" data-name="Path 462" d="M545.83,709.81s3,4.391,3.429,6S545.83,709.81,545.83,709.81Z" transform="translate(-244.755 -310.773)" opacity="0.1"/>
      <path id="Path_463" data-name="Path 463" d="M547.06,694.885s6.967-1.285,8.039-.536S547.06,694.885,547.06,694.885Z" transform="translate(-245.236 -304.636)" opacity="0.1"/>
      <path id="Path_464" data-name="Path 464" d="M543.392,738.49s-2.04.213,2.034,2.436,12,5.036,12.107,4.074S543.392,738.49,543.392,738.49Z" transform="translate(-243.602 -321.987)" opacity="0.1"/>
      <path id="Path_465" data-name="Path 465" d="M592.69,703.405c.719,0,9.689-.536,9.171.859S592.69,703.405,592.69,703.405Z" transform="translate(-263.079 -308.229)" opacity="0.1"/>
      <path id="Path_466" data-name="Path 466" d="M612.7,681.336s2.034-3.532,2.783-2.034S612.7,681.336,612.7,681.336Z" transform="translate(-270.903 -298.699)" opacity="0.1"/>
      <path id="Path_467" data-name="Path 467" d="M565.791,337.909a28.191,28.191,0,0,1-1.084,7.777,4.238,4.238,0,0,1-4.677.286c-1.705-.938-2.82-2.643-3.928-4.263s-2.369-3.24-4.184-3.934c-2.3-.865-4.914,0-6.912,1.437s-3.593,3.337-5.481,4.872-4.293,2.777-6.7,2.4a11.5,11.5,0,0,1-4.263-1.961c-1.827-1.151-3.788-2.941-5.791-3.715s-3.654.609-5.56.609c-1.516.548-3.167,1.8-2.862,3.374a5.229,5.229,0,0,0,.779,1.632,6.851,6.851,0,0,1-.9,7.545,28.293,28.293,0,1,1,51.563-16.1Z" transform="translate(-230.436 -154.275)" opacity="0.1"/>
      <path id="Path_468" data-name="Path 468" d="M513.644,333.43c-1.516.548-3.167,1.8-2.868,3.38a5.427,5.427,0,0,0,.786,1.626,6.836,6.836,0,0,1-3.045,9.2,2.7,2.7,0,0,1-1.693.268,3,3,0,0,1-1.218-.731,11.272,11.272,0,0,1-3.514-6.059c-.524-2.436-.2-5.018-.469-7.521s-1.127-4.969-1.425-7.49a6.948,6.948,0,0,1,.384-3.7,8.61,8.61,0,0,1,1.535-2.107c1.711-1.906,3.5-3.855,4.354-6.272,1.358-3.849.372-8.751,3.343-11.571,1.376-1.291,3.3-1.772,5.006-2.588a35.256,35.256,0,0,0,4.6-2.917c5.511-3.788,12.21-6.7,18.763-5.359a26.688,26.688,0,0,1,7.436,3.045,83.6,83.6,0,0,1,12.18,8.185,18.95,18.95,0,0,1,4.263,4.379,15.188,15.188,0,0,1,1.863,4.659,26.7,26.7,0,0,1,.353,10.962c-.609,3.569-1.991,7.034-2.046,10.657a6.887,6.887,0,0,1-.53,3.581c-1,1.669-3.5,1.827-5.2.9s-2.82-2.643-3.922-4.263-2.369-3.24-4.184-3.928c-2.3-.871-4.915,0-6.912,1.431s-3.587,3.337-5.481,4.872-4.263,2.777-6.7,2.4a11.486,11.486,0,0,1-4.263-1.955c-1.827-1.157-3.788-2.947-5.785-3.715S515.544,333.43,513.644,333.43Z" transform="translate(-226.874 -147.111)" fill="#794f6a"/>
      <path id="Path_469" data-name="Path 469" d="M612.4,432.83s-31.5,29.146-25.078,43.719S622.037,465.4,622.037,465.4l10.085-23.336Z" transform="translate(-260.643 -202.469)" fill="#f8bdc5"/>
      <g id="Group_52" data-name="Group 52" transform="translate(273.244 170.151)" opacity="0.1">
        <path id="Path_470" data-name="Path 470" d="M508.516,366.927a2.68,2.68,0,0,1-1.687.268,2.911,2.911,0,0,1-1.218-.737,11.29,11.29,0,0,1-3.52-6.053c-.518-2.466-.195-5.024-.463-7.527s-1.133-4.963-1.425-7.49a1.6,1.6,0,0,0-.03-.378,9.641,9.641,0,0,0,.03,2.095c.292,2.521,1.157,4.957,1.425,7.491s-.055,5.061.463,7.521a11.284,11.284,0,0,0,3.52,6.059,2.959,2.959,0,0,0,1.218.731,2.68,2.68,0,0,0,1.687-.268,6.879,6.879,0,0,0,3.751-7.028,6.753,6.753,0,0,1-3.751,5.316Z" transform="translate(-500.13 -338.281)"/>
        <path id="Path_471" data-name="Path 471" d="M571.069,337.79c-.609,3.569-1.991,7.034-2.04,10.657a6.827,6.827,0,0,1-.536,3.581c-1,1.669-3.489,1.827-5.195.9s-2.82-2.637-3.928-4.263-2.363-3.24-4.184-3.928c-2.29-.865-4.908,0-6.906,1.437s-3.593,3.331-5.481,4.872-4.293,2.777-6.7,2.405a11.6,11.6,0,0,1-4.263-1.961c-1.827-1.157-3.788-2.941-5.785-3.715s-3.654.609-5.56.609c-1.516.554-3.167,1.8-2.874,3.386a2.518,2.518,0,0,0,.164.5,4.738,4.738,0,0,1,2.71-2.168c1.9,0,3.581-1.364,5.56-.609s3.977,2.558,5.785,3.715a11.313,11.313,0,0,0,4.263,1.955c2.436.378,4.823-.846,6.7-2.4s3.489-3.471,5.481-4.872,4.616-2.3,6.906-1.431c1.827.688,3.081,2.326,4.184,3.928a12.939,12.939,0,0,0,3.928,4.263c1.705.962,4.2.767,5.195-.9a7.272,7.272,0,0,0,.536-3.581c.049-3.623,1.413-7.089,2.04-10.657a26.95,26.95,0,0,0,.39-5.554A27.036,27.036,0,0,1,571.069,337.79Z" transform="translate(-506.955 -333.96)"/>
      </g>
      <path id="Path_472" data-name="Path 472" d="M564.5,181.466s-11.571,21,4.263,31.722,17.362,9.646,17.362,9.646a15.4,15.4,0,0,0,0,3.215c.219.646,4.263,2.138,4.263,2.138s4.927,7.917,12,11.364,8.361,11.571,8.361,11.571,0,2.789,3.654,5.359,6.467,10.073,6.467,10.073v6.863c0,1.072,1.285,4.263-1.5,4.6s-.432,6.754-.432,6.754-3,3.654-2.357,5.359-1.285,5.14-1.285,5.14-2.357,3.429-2.144,4.074-2.57,3-1.93,4.5-3.209,3.429-2.57,5.146-2.74,2.57-2.74,2.57L596.649,333s19.487,4.263,24.518,15l24.566-45.01s13.714-33.646,14.147-35.79-3-9.859-3-9.859L640.161,226.89l-25.078-35.364S595.151,149.1,564.5,181.466Z" transform="translate(-250.461 -99.422)" opacity="0.1"/>
      <path id="Path_473" data-name="Path 473" d="M595.638,196.351s-30.108,10.566-14.25,21.284,17.362,9.64,17.362,9.64a15.852,15.852,0,0,0,0,3.215c.213.639,4.263,2.144,4.263,2.144s4.933,7.917,12,11.364,8.361,11.571,8.361,11.571,0,2.789,3.654,5.359S633.462,271,633.462,271v6.857c0,1.072,1.285,4.263-1.5,4.61s-.426,6.754-.426,6.754-3,3.654-2.357,5.353-1.285,5.146-1.285,5.146-2.357,3.429-2.144,4.074-2.576,3-1.93,4.5-3.215,3.429-2.57,5.146-2.746,2.57-2.746,2.57l-9.257,21.43s16.053.828,21.119,11.571L658.32,307.46s13.72-33.646,14.147-35.79-2.99-9.884-2.99-9.884L652.76,231.337l-38.135-22S626.288,163.983,595.638,196.351Z" transform="translate(-256.855 -105.446)" opacity="0.1"/>
      <path id="Path_474" data-name="Path 474" d="M567.321,181.468s-11.571,21,4.263,31.722,17.362,9.646,17.362,9.646a15.849,15.849,0,0,0,0,3.215c.213.646,4.263,2.138,4.263,2.138s4.933,7.917,12,11.364,8.361,11.571,8.361,11.571,0,2.789,3.654,5.359,6.461,10.073,6.461,10.073v6.863c0,1.072,1.285,4.263-1.5,4.6s-.426,6.754-.426,6.754-3,3.654-2.357,5.359-1.285,5.14-1.285,5.14-2.357,3.429-2.144,4.074-2.576,3-1.93,4.5-3.215,3.429-2.57,5.146-2.747,2.57-2.747,2.57L599.469,333s19.451,4.263,24.512,15l24.566-45.01s13.72-33.646,14.147-35.79-3-9.859-3-9.859l-16.717-30.449L617.9,191.54S597.965,149.106,567.321,181.468Z" transform="translate(-251.564 -99.424)" fill="#99d24a"/>
      <g id="Group_53" data-name="Group 53" transform="translate(185.04 77.141)" opacity="0.1">
        <path id="Path_475" data-name="Path 475" d="M359.419,196.68a30.557,30.557,0,0,0-1.705-7.795c-.883-2.436-2.089-4.835-2.375-7.423v-.231a9.928,9.928,0,0,0,0,1.949c.286,2.588,1.492,4.969,2.375,7.423a30.509,30.509,0,0,1,1.705,7.789c.085,1,.122,2.01.134,3.045C359.572,199.822,359.553,198.245,359.419,196.68Z" transform="translate(-355.291 -181.23)"/>
        <path id="Path_476" data-name="Path 476" d="M383.059,239.992c-1.309,2.874-5.286,3.331-8.331,2.485a17.088,17.088,0,0,1-11.364-10.621,25.151,25.151,0,0,1-1.218-8.106,27.867,27.867,0,0,0,1.218,9.817,17.094,17.094,0,0,0,11.364,10.627c3.045.84,7.022.39,8.331-2.491a9.292,9.292,0,0,0,.475-4.019A6.279,6.279,0,0,1,383.059,239.992Z" transform="translate(-357.97 -197.856)"/>
        <path id="Path_477" data-name="Path 477" d="M480.526,183.366c-.262,1.949-1.035,4.141-2.893,4.793a4.555,4.555,0,0,1-3.246-.3c-3.045-1.328-5.755-4.531-9.007-3.757-2.655.609-3.928,3.611-4.628,6.254a15.4,15.4,0,0,0-.652,5.158,20.1,20.1,0,0,1,.652-3.447c.7-2.637,1.973-5.621,4.628-6.254,3.252-.767,5.938,2.436,9.007,3.757a4.531,4.531,0,0,0,3.246.311c1.857-.652,2.631-2.844,2.893-4.8a22.131,22.131,0,0,0,.183-3.757C480.678,182,480.617,182.69,480.526,183.366Z" transform="translate(-396.268 -181.265)"/>
        <path id="Path_478" data-name="Path 478" d="M442.688,222.167c-1.827,1.322-4.305-.085-6.309-1.139-2.144-1.127-4.872-1.827-6.912-.53-.7.438-1.267,1.072-1.949,1.541a7.009,7.009,0,0,1-4.7.974c-3.879-.4-5.329-2.85-8.282-4.75-2.168-1.395-6.7-1.991-7.99.871a5.194,5.194,0,0,0-.25,2.637,3.428,3.428,0,0,1,.25-.92c1.3-2.868,5.822-2.272,7.99-.871,2.954,1.9,4.4,4.354,8.282,4.75a7.046,7.046,0,0,0,4.7-.98c.682-.463,1.248-1.1,1.949-1.535,2.058-1.279,4.768-.609,6.912.53,2,1.047,4.47,2.436,6.309,1.133a3.376,3.376,0,0,0,1.09-3.477A2.813,2.813,0,0,1,442.688,222.167Z" transform="translate(-375.208 -195.256)"/>
        <path id="Path_479" data-name="Path 479" d="M402.629,229.713c-.834,1.912-3.4,2.436-4.58,4.159-.883,1.279-.81,2.874-.779,4.476a5.067,5.067,0,0,1,.779-2.759c1.181-1.723,3.745-2.253,4.58-4.165a5.3,5.3,0,0,0,.231-2.594,3.434,3.434,0,0,1-.231.883Z" transform="translate(-371.7 -199.842)"/>
      </g>
    </g>
  </g>
</svg>
