<svg id="Group_56" data-name="Group 56" xmlns="http://www.w3.org/2000/svg" width="716.303" height="504.795" viewBox="0 0 716.303 504.795">
  <circle id="Ellipse_114" data-name="Ellipse 114" cx="39.009" cy="39.009" r="39.009" transform="translate(326.822 425.707)" fill="#99d24a"/>
  <path id="Path_480" data-name="Path 480" d="M795.328,661.03c21.823-6.554,45.025-13.388,62.332-28.969,15.466-13.923,25.907-35.184,19.5-56.064-6.394-20.838-25.546-34.732-45.32-41.642-11.215-3.919-22.948-6.094-34.677-7.8-12.75-1.857-25.556-3.378-38.356-4.842q-77.744-8.892-156.073-10.864c-25.767-.649-51.529-.633-77.3-.259-23.015.334-47.254.326-68.6-9.456-16.6-7.607-31.672-21.445-36.3-39.631-5.34-20.993,4.51-42.37,18.639-57.574,7.448-8.014,16.153-14.759,25.132-20.961,9.742-6.728,19.823-12.98,30.122-18.816a419.479,419.479,0,0,1,63.4-29.23c10.809-3.93,21.778-7.321,32.842-10.449a281,281,0,0,0,27.744-8.885c17.455-6.957,34.057-18.741,38.5-38.06,4.206-18.31-2.886-38.187-15.32-51.789C627.207,210,605.518,203.1,584.724,201.984c-23.345-1.253-46.152,4.59-68.094,12-23.4,7.909-46.3,17-70.2,23.408a472.309,472.309,0,0,1-72.248,13.43c-11.942,1.272-24.245,2.708-36.258,1.734-10.068-.816-20.085-3.777-27.5-10.922-6.362-6.127-10.152-14.547-8.849-23.433.237-1.614,2.688-.928,2.453.676-1.586,10.817,5.766,20.784,14.827,25.89,10.472,5.9,23.214,5.909,34.872,5.234a456.1,456.1,0,0,0,75.062-10.851c24.247-5.538,47.628-13.455,70.983-21.912,22.181-8.032,44.858-15.871,68.554-17.611,20.561-1.51,42.191,1.486,60.1,12.231a66.489,66.489,0,0,1,31.008,43.264c3.6,17.66-1.388,35.435-14.756,47.758-13.841,12.76-32.819,18.215-50.505,23.239-22.432,6.372-44.383,13.821-65.631,23.493a412,412,0,0,0-61.736,34.708c-18.865,12.892-37.483,29.113-43.45,52.112a48.007,48.007,0,0,0,2.384,32.195c4.135,9,10.945,16.566,18.878,22.4,18.928,13.928,42.785,16.788,65.649,17.072,25.679.319,51.359-.547,77.047-.126q78.526,1.289,156.731,9.559,19.6,2.074,39.143,4.585c11.721,1.506,23.481,3,35.005,5.677,20.49,4.756,40.429,13.9,53.164,31.273A52,52,0,0,1,881.489,584.9c.892,9.772-1.5,19.563-5.919,28.257-9.78,19.242-28.1,31.481-47.552,39.522-10.419,4.307-21.227,7.569-32.014,10.809a1.273,1.273,0,0,1-.676-2.453Z" transform="translate(-196.455 -159.496)" fill="#f2f2f2"/>
  <circle id="Ellipse_115" data-name="Ellipse 115" cx="20.353" cy="20.353" r="20.353" transform="translate(86.408 38.585)" fill="#f2f2f2"/>
  <circle id="Ellipse_116" data-name="Ellipse 116" cx="20.353" cy="20.353" r="20.353" transform="translate(227.603 77.17)" fill="#f2f2f2"/>
  <circle id="Ellipse_117" data-name="Ellipse 117" cx="20.353" cy="20.353" r="20.353" transform="translate(347.174)" fill="#f2f2f2"/>
  <circle id="Ellipse_118" data-name="Ellipse 118" cx="20.353" cy="20.353" r="20.353" transform="translate(421.8 86.498)" fill="#f2f2f2"/>
  <circle id="Ellipse_119" data-name="Ellipse 119" cx="20.353" cy="20.353" r="20.353" transform="translate(320.886 186.565)" fill="#f2f2f2"/>
  <circle id="Ellipse_120" data-name="Ellipse 120" cx="20.353" cy="20.353" r="20.353" transform="translate(192.834 234.902)" fill="#f2f2f2"/>
  <circle id="Ellipse_121" data-name="Ellipse 121" cx="20.353" cy="20.353" r="20.353" transform="translate(328.518 310.376)" fill="#f2f2f2"/>
  <circle id="Ellipse_122" data-name="Ellipse 122" cx="20.353" cy="20.353" r="20.353" transform="translate(474.378 352.777)" fill="#f2f2f2"/>
  <circle id="Ellipse_123" data-name="Ellipse 123" cx="20.353" cy="20.353" r="20.353" transform="translate(644.83 343.449)" fill="#f2f2f2"/>
  <path id="Path_481" data-name="Path 481" d="M584.1,220.372c-60.966.431-110.884,49.974-111.75,110.935-.008.563-.012,4.52-.011,9.7a28.619,28.619,0,0,0,28.614,28.617h0a28.635,28.635,0,0,0,28.63-28.655c0-3.527,0-5.964,0-6.114a54.274,54.274,0,1,1,83.547,45.691l.01.012s-40.729,26.22-53.146,62.19l.011,0a79.72,79.72,0,0,0-3.285,22.7c0,3.159.186,30.8.545,53.237a29.5,29.5,0,0,0,29.5,29.021h0a29.508,29.508,0,0,0,29.506-29.69c-.125-20.547-.192-44.472-.192-46.208,0-22.087,21.307-44.093,38.809-58.443a117.709,117.709,0,0,0,40.482-64.449,73.573,73.573,0,0,0,2.119-15.971A112.575,112.575,0,0,0,584.1,220.372Z" transform="translate(-222.447 -162.704)" fill="#99d24a"/>
  <path id="Path_482" data-name="Path 482" d="M892.958,747.269H178.672a1.01,1.01,0,1,1,0-2.019H892.956a1.01,1.01,0,0,1,0,2.019Z" transform="translate(-177.662 -242.474)" fill="#3f3d56"/>
  <circle id="Ellipse_124" data-name="Ellipse 124" cx="25.441" cy="25.441" r="25.441" transform="translate(507.498 180.625)" fill="#2f2e41"/>
  <path id="Path_483" data-name="Path 483" d="M570.262,574.942h-10.4l-4.947-40.1h15.345Z" transform="translate(-84.336 -81.284)" fill="#a0616a"/>
  <path id="Path_484" data-name="Path 484" d="M549.734,578.626h20.051V591.25H537.109A12.625,12.625,0,0,1,549.734,578.626Z" transform="translate(-81.629 -87.939)" fill="#2f2e41"/>
  <path id="Path_485" data-name="Path 485" d="M665.262,574.942h-10.4l-4.947-40.1h15.345Z" transform="translate(-98.774 -81.284)" fill="#a0616a"/>
  <path id="Path_486" data-name="Path 486" d="M644.734,578.626h20.051V591.25H632.109A12.624,12.624,0,0,1,644.734,578.626Z" transform="translate(-96.067 -87.939)" fill="#2f2e41"/>
  <circle id="Ellipse_125" data-name="Ellipse 125" cx="20.828" cy="20.828" r="20.828" transform="translate(508.244 189.998)" fill="#a0616a"/>
  <path id="Path_487" data-name="Path 487" d="M802.845,494.123l9.319-21.413a26.613,26.613,0,0,0-5.893-30.19,27.038,27.038,0,0,0-2.6-2.264,26.234,26.234,0,0,0-16.1-5.571,27.289,27.289,0,0,0-11.363,2.527c-.306.136-.6.28-.908.424-.585.28-1.161.585-1.721.9a26.864,26.864,0,0,0-13.314,20.251l-4.113,34.464c-1.034,2.705-37.94,100.4-25.033,174.981a3.788,3.788,0,0,0,3.239,3.112l13.085,1.781a3.813,3.813,0,0,0,4.248-2.994l21.955-104.654a2.971,2.971,0,0,1,5.766-.2l31.021,110.056a3.792,3.792,0,0,0,3.655,2.782,4.341,4.341,0,0,0,.738-.068l15.985-3.078a3.792,3.792,0,0,0,3.079-4.079C831.534,644.7,819.051,513.483,802.845,494.123Z" transform="translate(-261.359 -195.275)" fill="#2f2e41"/>
  <path id="Path_488" data-name="Path 488" d="M706.092,420.051a8.528,8.528,0,0,0,8.984,9.5l11.642,27.978,8.807-13.055-12.406-24.567a8.574,8.574,0,0,0-17.027.143Z" transform="translate(-257.963 -191.891)" fill="#a0616a"/>
  <path id="Path_489" data-name="Path 489" d="M798.461,531.846a8.527,8.527,0,0,0,7.146-10.951l24.5-17.841-14.747-5.522-21,17.789a8.574,8.574,0,0,0,4.107,16.525Z" transform="translate(-270.544 -204.826)" fill="#a0616a"/>
  <path id="Path_490" data-name="Path 490" d="M747.707,480.13a14.465,14.465,0,0,1-2.8-.276,13.827,13.827,0,0,1-10.132-8.155L718.467,451.81a3.817,3.817,0,0,1,.942-5.665l11.6-7.183a3.816,3.816,0,0,1,5.271,1.264l11.5,18.94,22.016-16.27a8.244,8.244,0,0,1,9.591,13.2l-21.974,20.044a13.783,13.783,0,0,1-9.707,3.994Z" transform="translate(-259.721 -195.838)" fill="#2f2e41"/>
  <path id="Path_491" data-name="Path 491" d="M820.719,511.157h-.09a3.823,3.823,0,0,1-2.807-1.332L807.5,497.788a3.816,3.816,0,0,1,.78-5.659L827.6,479.25l-17.5-21.042a8.244,8.244,0,0,1,12.625-10.331L844,468.664a14.013,14.013,0,0,1-3.117,22.846L823.5,509.958a3.823,3.823,0,0,1-2.777,1.2Z" transform="translate(-273.245 -196.953)" fill="#2f2e41"/>
  <path id="Path_492" data-name="Path 492" d="M793.242,464.748a3.918,3.918,0,0,1-.494-.031,3.783,3.783,0,0,1-3.147-2.6l-7.753-23.769a2.614,2.614,0,0,1,1.352-3.159l.251-.119c.228-.108.454-.216.685-.318a27.624,27.624,0,0,1,11.536-2.564,26.566,26.566,0,0,1,14.553,4.373,2.654,2.654,0,0,1,.764,3.642l-14.544,22.784a3.778,3.778,0,0,1-3.2,1.764Z" transform="translate(-269.466 -194.895)" fill="#e6e6e6"/>
  <circle id="Ellipse_126" data-name="Ellipse 126" cx="8.325" cy="8.325" r="8.325" transform="translate(544.671 178.059)" fill="#2f2e41"/>
  <path id="Path_493" data-name="Path 493" d="M792.16,361.365h0a22.049,22.049,0,0,0-22.049,22.048v9.328h11.473l5.487-9.328,1.646,9.328h34.819l-9.328-9.328a22.049,22.049,0,0,0-22.049-22.048Z" transform="translate(-267.702 -184.132)" fill="#2f2e41"/>
  <path id="Path_494" data-name="Path 494" d="M834.809,363.83a12.848,12.848,0,0,1,13.976-8.816c5.305.887,9.5,5.151,12,9.914s3.653,10.094,5.334,15.2,4.063,10.247,8.3,13.555,10.75,4.2,14.916.8a17.061,17.061,0,0,1-31.781,6.09c-2.2-3.911-2.766-8.494-3.417-12.933s-1.5-9.031-4.123-12.67-7.537-6.015-11.706-4.358Z" transform="translate(-277.534 -183.149)" fill="#2f2e41"/>
  <path id="Path_495" data-name="Path 495" d="M508.961,364.437h0a28.618,28.618,0,0,1-28.616-28.614c0-5.179,0-9.137.011-9.7a111.521,111.521,0,0,1,13.025-50.8,111.772,111.772,0,0,0-21.5,64.372c-.008.563-.012,4.52-.011,9.7a28.619,28.619,0,0,0,28.614,28.617h0a28.64,28.64,0,0,0,27.551-20.854,28.513,28.513,0,0,1-19.07,7.285Z" transform="translate(-222.375 -171.055)" fill="#3f3d56"/>
  <path id="Path_496" data-name="Path 496" d="M598.548,289.035a54.277,54.277,0,0,1,47.2,75.824,54.271,54.271,0,1,0-91.1-56.8A54.164,54.164,0,0,1,598.548,289.035Z" transform="translate(-234.956 -171.068)" fill="#3f3d56"/>
  <path id="Path_497" data-name="Path 497" d="M609.892,569.667h0a29.5,29.5,0,0,1-29.5-29.028c-.359-22.429-.545-50.071-.545-53.23a79.716,79.716,0,0,1,3.285-22.7l-.01,0a80.61,80.61,0,0,1,4.659-10.771,93.325,93.325,0,0,0-13.139,24.339l.01,0a79.721,79.721,0,0,0-3.285,22.7c0,3.159.186,30.8.545,53.237a29.5,29.5,0,0,0,29.5,29.021h0A29.512,29.512,0,0,0,629.736,562,29.392,29.392,0,0,1,609.892,569.667Z" transform="translate(-237.496 -198.201)" fill="#3f3d56"/>
  <path id="Path_498" data-name="Path 498" d="M126.541,575.4h10.4l4.947-40.1H126.538Z" transform="translate(-19.231 -81.353)" fill="#ffb8b8"/>
  <path id="Path_499" data-name="Path 499" d="M0,0H32.675V12.625H12.625A12.624,12.624,0,0,1,0,0Z" transform="translate(137.754 503.698) rotate(179.997)" fill="#2f2e41"/>
  <path id="Path_500" data-name="Path 500" d="M82.541,575.4h10.4l4.947-40.1H82.538Z" transform="translate(-12.544 -81.353)" fill="#ffb8b8"/>
  <path id="Path_501" data-name="Path 501" d="M0,0H32.675V12.625H12.625A12.624,12.624,0,0,1,0,0Z" transform="translate(100.441 503.698) rotate(179.997)" fill="#2f2e41"/>
  <path id="Path_502" data-name="Path 502" d="M268.424,695.477l-10.155-.534a3.963,3.963,0,0,1-3.747-4.212L266.66,556.348l55.894,15.083,5.385-1.469L311.1,688.926a3.982,3.982,0,0,1-3.7,3.345l-10.947.51a3.964,3.964,0,0,1-4.182-4.067l1.983-71.4a1.321,1.321,0,0,0-2.615-.305l-19.129,75.315a3.94,3.94,0,0,1-3.875,3.159C268.567,695.483,268.5,695.481,268.424,695.477Z" transform="translate(-189.342 -213.765)" fill="#2f2e41"/>
  <circle id="Ellipse_127" data-name="Ellipse 127" cx="20.828" cy="20.828" r="20.828" transform="translate(88.348 190.973)" fill="#ffb8b8"/>
  <path id="Path_503" data-name="Path 503" d="M265.505,468.373l2.29,49.412.828,17.977a3.937,3.937,0,0,0,2.607,3.541l53.71,19.457A3.8,3.8,0,0,0,326.3,559a3.938,3.938,0,0,0,3.955-4.06l-2.2-88.845a31.318,31.318,0,0,0-26.072-30.255c-.52-.079-1.048-.159-1.577-.229a30.741,30.741,0,0,0-24.733,8.006,31.577,31.577,0,0,0-10.164,24.759Z" transform="translate(-191.007 -195.38)" fill="#ccc"/>
  <path id="Path_504" data-name="Path 504" d="M361.775,562.416a8.534,8.534,0,0,1-4.553-12.912l-18.214-24.22,15.717-.973,14.887,23.148a8.574,8.574,0,0,1-7.837,14.956Z" transform="translate(-202.183 -208.896)" fill="#ffb8b8"/>
  <path id="Path_505" data-name="Path 505" d="M345.3,534.123a3.939,3.939,0,0,1-2.155-2.136l-27.44-65.378a10.569,10.569,0,1,1,19.491-8.181l27.44,65.379a3.968,3.968,0,0,1-2.12,5.188l-12.182,5.113a3.936,3.936,0,0,1-3.034.015Z" transform="translate(-198.516 -197.898)" fill="#ccc"/>
  <path id="Path_506" data-name="Path 506" d="M298.424,536.689l26.356-50.465a4.137,4.137,0,0,1,5.576-1.75l38.256,19.979a4.137,4.137,0,0,1,1.75,5.576L344,560.495a4.137,4.137,0,0,1-5.576,1.75l-38.256-19.979A4.137,4.137,0,0,1,298.424,536.689Z" transform="translate(-195.944 -202.771)" fill="#3f3d56"/>
  <path id="Path_507" data-name="Path 507" d="M312.459,515.263a8.534,8.534,0,0,0-13.159-3.782l-25.253-16.752L274,510.476l23.986,13.494a8.574,8.574,0,0,0,14.467-8.707Z" transform="translate(-192.304 -204.4)" fill="#ffb8b8"/>
  <path id="Path_508" data-name="Path 508" d="M276.224,511.1l-20.638-16.348a14.555,14.555,0,0,1-6.634-23.011l18.739-24.558a8.562,8.562,0,0,1,14.526,8.721L267.39,480.159l21.789,10.335a3.963,3.963,0,0,1,1.652,5.7l-8.8,13.92a3.971,3.971,0,0,1-2.685,1.79l-.066.01A3.982,3.982,0,0,1,276.224,511.1Z" transform="translate(-187.997 -196.697)" fill="#ccc"/>
  <path id="Path_509" data-name="Path 509" d="M286.01,410.817a1.81,1.81,0,0,1,1.574-2.391,4.181,4.181,0,0,1,2.948,1.454,11.731,11.731,0,0,0,2.6,2.236,2.241,2.241,0,0,0,2.948-.533c.539-.909.17-2.127-.157-3.183a31.3,31.3,0,0,1-1.382-8.285c-.094-3.138.349-6.413,2.086-8.86,2.242-3.159,6.251-4.358,10.045-4.271s7.527,1.258,11.285,2c1.3.256,2.822.386,3.69-.619.923-1.069.584-2.8.191-4.243-1.018-3.746-2.1-7.619-4.465-10.645a16.026,16.026,0,0,0-10.228-5.758,24.54,24.54,0,0,0-11.416,1.3,30.611,30.611,0,0,0-15,10.446,24.792,24.792,0,0,0-4.73,18.317,22.614,22.614,0,0,0,8.383,14.293Z" transform="translate(-192.572 -185.069)" fill="#2f2e41"/>
  <path id="Path_510" data-name="Path 510" d="M593.457,724.284a39,39,0,0,1-14.476-60.624,39.007,39.007,0,1,0,53.06,56.363,38.983,38.983,0,0,1-38.584,4.261Z" transform="translate(-236.221 -230.074)" fill="#3f3d56"/>
</svg>
