<?xml version="1.0" standalone="no"?>
<!DOCTYPE svg PUBLIC "-//W3C//DTD SVG 20010904//EN"
 "http://www.w3.org/TR/2001/REC-SVG-20010904/DTD/svg10.dtd">
<svg version="1.0" xmlns="http://www.w3.org/2000/svg"
 width="500.000000pt" height="500.000000pt" viewBox="0 0 500.000000 500.000000"
 preserveAspectRatio="xMidYMid meet">
<metadata>
Created by potrace 1.11, written by Peter Selinger 2001-2013
</metadata>
<g transform="translate(0.000000,500.000000) scale(0.100000,-0.100000)"
fill="#000000" stroke="none">
<path d="M2250 4988 c-47 -4 -152 -21 -235 -37 -479 -95 -912 -324 -1265 -673
-74 -73 -136 -142 -230 -254 -41 -49 -191 -285 -234 -369 -55 -104 -108 -223
-137 -304 -23 -66 -76 -245 -83 -281 -2 -14 -7 -32 -10 -40 -5 -15 -12 -52
-22 -125 -3 -22 -7 -46 -9 -53 -12 -34 -20 -186 -20 -352 0 -242 10 -337 51
-530 29 -134 87 -313 136 -419 l34 -74 56 94 c30 52 65 110 76 129 11 19 129
220 262 445 398 672 500 846 500 851 0 2 -124 4 -276 4 -244 0 -275 2 -270 15
3 9 13 41 22 73 51 178 160 396 287 574 186 259 420 462 717 620 152 80 380
158 540 184 14 2 35 6 47 9 87 20 400 27 538 13 351 -37 709 -180 983 -393
109 -84 135 -107 244 -219 54 -55 99 -98 101 -96 2 3 31 49 63 102 32 54 70
116 84 138 14 21 48 77 77 124 l51 85 -66 61 c-198 185 -433 345 -679 462
-135 64 -160 74 -313 124 -100 34 -269 76 -355 89 -22 3 -71 11 -110 16 -88
14 -443 18 -555 7z"/>
<path d="M2467 3774 c-1 -1 -33 -5 -72 -8 -203 -19 -457 -121 -625 -254 -181
-141 -342 -365 -413 -573 -258 -748 226 -1542 1008 -1654 156 -23 383 -5 531
40 540 166 902 664 889 1224 -4 170 -28 289 -90 446 -164 412 -568 721 -1008
771 -57 6 -215 12 -220 8z m250 -223 c86 -16 159 -38 223 -67 30 -14 72 -33
93 -42 36 -16 38 -19 33 -52 -5 -31 -1 -40 45 -86 l50 -50 -52 -52 -52 -53
-45 47 c-25 25 -54 49 -66 53 -16 5 -167 7 -197 2 -3 -1 -52 -47 -109 -103
l-102 -102 51 -105 52 -104 53 52 c49 49 53 56 51 96 -1 24 1 47 4 52 3 5 27
9 52 10 44 1 50 -2 100 -53 l53 -54 -49 -50 c-41 -41 -89 -70 -258 -155 -188
-95 -214 -105 -263 -105 l-54 0 0 -105 0 -105 51 0 c41 0 71 10 156 51 l105
52 52 -52 c49 -48 54 -51 104 -51 l52 0 0 53 c0 50 2 55 53 104 47 46 244 160
256 148 9 -10 5 -195 -4 -196 -5 -1 -53 -2 -105 -3 l-94 -1 -2 -53 -2 -52 106
0 107 0 60 -93 c33 -50 80 -120 104 -155 l44 -64 52 52 c50 50 52 53 51 103
l-2 52 -49 0 -50 1 -3 50 -3 51 83 6 c46 3 92 9 104 12 20 6 21 5 12 -57 -19
-141 -105 -361 -173 -443 l-24 -30 -1 48 c0 26 -4 47 -10 48 -5 0 -29 2 -52 2
l-42 2 -101 152 c-55 84 -104 153 -109 153 -5 0 -52 -22 -106 -50 l-98 -49
-157 52 -157 53 -156 -52 -156 -53 -53 -105 -54 -105 53 -103 53 -103 103 -1
102 0 54 52 53 52 52 -52 51 -52 1 -125 c0 -68 0 -138 0 -156 l-1 -32 -122 4
c-144 4 -229 20 -355 67 -228 86 -434 269 -551 491 -103 195 -142 461 -97 675
8 41 15 76 15 79 0 13 91 41 128 39 36 -2 42 1 43 18 0 12 1 83 1 159 l1 137
53 0 52 0 28 86 c26 83 29 88 87 130 32 24 63 44 67 44 5 0 -11 -57 -35 -127
l-42 -128 104 -3 105 -3 104 106 104 105 0 50 c0 43 -3 50 -20 51 -81 4 -81 3
-136 -50 l-54 -53 0 61 0 61 37 15 c54 23 179 55 238 61 28 3 51 7 53 9 7 7
214 -4 269 -14z"/>
<path d="M2332 2941 l3 -105 43 -1 c24 -1 45 3 48 7 3 5 6 41 5 81 0 136 5
122 -51 123 l-51 0 3 -105z"/>
<path d="M4668 3344 c-58 -98 -215 -363 -347 -589 -133 -225 -245 -417 -250
-425 -21 -33 -157 -264 -174 -293 l-17 -32 274 -3 274 -2 -19 -67 c-54 -189
-169 -426 -283 -583 -261 -360 -616 -624 -1010 -751 -79 -26 -249 -67 -306
-74 -25 -3 -74 -10 -110 -14 -125 -16 -372 -9 -518 14 -84 13 -102 17 -212 46
-342 91 -647 272 -912 542 l-107 109 -43 -68 c-24 -38 -87 -138 -140 -224
l-97 -155 53 -50 c254 -242 560 -435 889 -561 84 -32 261 -87 320 -98 15 -4
37 -8 50 -11 165 -36 282 -48 482 -49 268 -1 395 12 625 65 77 18 266 77 315
99 11 5 58 25 104 45 688 303 1216 921 1405 1646 64 243 80 373 81 634 0 189
-9 324 -30 435 -4 19 -9 46 -12 60 -9 53 -45 188 -70 265 -26 83 -37 110 -82
209 l-27 59 -106 -179z"/>
</g>
</svg>
