<svg xmlns="http://www.w3.org/2000/svg" width="728.505" height="441.379" viewBox="0 0 728.505 441.379">
  <g id="Group_23" data-name="Group 23" transform="translate(0 0.005)">
    <circle id="Ellipse_45" data-name="Ellipse 45" cx="37.543" cy="37.543" r="37.543" transform="translate(22.767 20.672)" fill="#ff6584"/>
    <ellipse id="Ellipse_46" data-name="Ellipse 46" cx="362.372" cy="14.691" rx="362.372" ry="14.691" transform="translate(0 411.992)" fill="#e6e6e6"/>
    <circle id="Ellipse_47" data-name="Ellipse 47" cx="92.225" cy="92.225" r="92.225" transform="translate(0 58.124)" fill="#a2da54"/>
    <path id="Path_89" data-name="Path 89" d="M119.637,458.876h-18.89L109.358,167.2Z" transform="translate(-18.523 -30.741)" fill="#3f3d56"/>
    <path id="Path_90" data-name="Path 90" d="M112.777,228.613l20.279-28.056-20.556,35-2.222-3.889Z" transform="translate(-20.275 -36.874)" fill="#3f3d56"/>
    <path id="Path_91" data-name="Path 91" d="M106.049,263.33,85.771,235.274l20.556,35,2.222-3.889Z" transform="translate(-15.769 -43.257)" fill="#3f3d56"/>
    <path id="Path_92" data-name="Path 92" d="M823.25,459.252H804.361l8.611-291.675Z" transform="translate(-147.883 -30.81)" fill="#3f3d56"/>
    <path id="Path_93" data-name="Path 93" d="M816.391,228.989l20.279-28.056-20.556,35-2.222-3.889Z" transform="translate(-149.636 -36.943)" fill="#3f3d56"/>
    <path id="Path_94" data-name="Path 94" d="M809.663,263.706,789.385,235.65l20.556,35,2.222-3.889Z" transform="translate(-145.13 -43.326)" fill="#3f3d56"/>
    <circle id="Ellipse_48" data-name="Ellipse 48" cx="171.802" cy="171.802" r="171.802" transform="translate(202.855 84.788)" fill="#3f3d56"/>
    <circle id="Ellipse_49" data-name="Ellipse 49" cx="157.58" cy="157.58" r="157.58" transform="translate(217.077 99.01)" fill="#fff"/>
    <circle id="Ellipse_50" data-name="Ellipse 50" cx="21.049" cy="21.049" r="21.049" transform="translate(353.04 236.11)" fill="#3f3d56"/>
    <rect id="Rectangle_25" data-name="Rectangle 25" width="9.102" height="17.066" transform="translate(369.537 106.975)" fill="#3f3d56"/>
    <rect id="Rectangle_26" data-name="Rectangle 26" width="9.102" height="17.066" transform="translate(369.537 390.278)" fill="#3f3d56"/>
    <rect id="Rectangle_27" data-name="Rectangle 27" width="9.102" height="17.066" transform="translate(240.97 252.608) rotate(90)" fill="#3f3d56"/>
    <rect id="Rectangle_28" data-name="Rectangle 28" width="9.102" height="17.066" transform="translate(524.273 252.608) rotate(90)" fill="#3f3d56"/>
    <path id="Path_95" data-name="Path 95" d="M450.924,322.279l7.779-17.786,97.468,53.982Z" transform="translate(-82.903 -55.983)" fill="#3f3d56"/>
    <rect id="Rectangle_29" data-name="Rectangle 29" width="44.373" height="51.199" transform="translate(352.471 43.26)" fill="#3f3d56"/>
    <ellipse id="Ellipse_51" data-name="Ellipse 51" cx="51.199" cy="14.222" rx="51.199" ry="14.222" transform="translate(323.458 29.038)" fill="#3f3d56"/>
    <path id="Path_96" data-name="Path 96" d="M726.476,530.386l-2.844,3.982s-13.084,15.36-13.653,7.964,9.671-12.515,9.671-12.515l5.689-3.413Z" transform="translate(-255.963 -243.361)" fill="#ffb8b8"/>
    <path id="Path_97" data-name="Path 97" d="M828.5,547.593l2.382,4.275s8.283,18.4,1.355,15.748-7.173-14.1-7.173-14.1l-.65-6.6Z" transform="translate(-277.006 -247.132)" fill="#ffb8b8"/>
    <circle id="Ellipse_52" data-name="Ellipse 52" cx="17.322" cy="17.322" r="17.322" transform="translate(521.363 190.013)" fill="#2f2e41"/>
    <path id="Path_98" data-name="Path 98" d="M811.751,607.763l2.276,14.791V627.1h13.084v-5.689s.569-10.24-1.707-13.084S811.751,607.763,811.751,607.763Z" transform="translate(-274.678 -258.16)" fill="#ffb8b8"/>
    <path id="Path_99" data-name="Path 99" d="M783.173,607.763l2.276,14.791V627.1h13.084v-5.689s.569-10.24-1.707-13.084S783.173,607.763,783.173,607.763Z" transform="translate(-269.424 -258.16)" fill="#ffb8b8"/>
    <path id="Path_100" data-name="Path 100" d="M793.331,462.384s-5.033,2.652-1.6,8.686,23.605,68.456,23.605,68.456l11.635-3.3-10.261-39.477-5.875-24.812Z" transform="translate(-270.778 -231.591)" fill="#a2da54"/>
    <circle id="Ellipse_53" data-name="Ellipse 53" cx="13.084" cy="13.084" r="13.084" transform="translate(523.704 199.134)" fill="#ffb8b8"/>
    <path id="Path_101" data-name="Path 101" d="M815.646,442.063,813.94,468.8l-11.947-8.533s3.982-15.929,2.844-17.066Z" transform="translate(-272.884 -227.854)" fill="#ffb8b8"/>
    <path id="Path_102" data-name="Path 102" d="M812.529,469.673l-12.87-9.53s-5.9-2.416-7.61.428-10.24,44.942-5.689,52.906c0,0,24.462,5.12,29.582,2.276l2.276-14.791s2.844-9.1-1.707-14.791Z" transform="translate(-269.768 -231.003)" fill="#a2da54"/>
    <path id="Path_103" data-name="Path 103" d="M784.227,461.351s-4.551-3.413-8.533,2.276-51.768,50.63-51.768,50.63l7.964,9.1,31.288-26.169,19.911-15.929Z" transform="translate(-258.532 -231.214)" fill="#a2da54"/>
    <path id="Path_104" data-name="Path 104" d="M815.269,527.5s-28.16-5.4-31-1.422l-.569,6.258s-6.258,11.947-2.844,31.288,1.138,31.289,1.138,31.289,15.36-1.707,26.737,0,13.084,0,13.084,0Z" transform="translate(-268.81 -243.031)" fill="#2f2e41"/>
    <path id="Path_105" data-name="Path 105" d="M828.249,628.868l-16.5.569L817.44,672.1s-4.551,18.2.569,19.342a57.71,57.71,0,0,0,10.809,1.138s5.12,5.12,10.809,4.551a31.858,31.858,0,0,0,10.809-3.413s1.138-3.413-2.844-4.551-14.791-4.551-17.066-16.5Z" transform="translate(-274.678 -262.199)" fill="#2f2e41"/>
    <path id="Path_106" data-name="Path 106" d="M799.671,628.868l-16.5.569,5.689,42.666s-4.551,18.2.569,19.342a57.711,57.711,0,0,0,10.809,1.138s5.12,5.12,10.809,4.551a31.857,31.857,0,0,0,10.809-3.413s1.138-3.413-2.844-4.551-14.791-4.551-17.067-16.5Z" transform="translate(-269.424 -262.199)" fill="#2f2e41"/>
    <circle id="Ellipse_54" data-name="Ellipse 54" cx="7.168" cy="7.168" r="7.168" transform="translate(537.577 181.936)" fill="#2f2e41"/>
    <path id="Path_107" data-name="Path 107" d="M831.415,404.931a7.168,7.168,0,0,0-6.421-7.129,7.249,7.249,0,0,1,.746-.039,7.168,7.168,0,1,1,0,14.336,7.248,7.248,0,0,1-.747-.039,7.169,7.169,0,0,0,6.421-7.129Z" transform="translate(-277.113 -219.71)" fill="#2f2e41"/>
    <ellipse id="Ellipse_55" data-name="Ellipse 55" cx="11.946" cy="7.168" rx="11.946" ry="7.168" transform="translate(524.724 196.494)" fill="#2f2e41"/>
    <path id="Path_108" data-name="Path 108" d="M1010.626,214a36.463,36.463,0,0,0-71.541-7.688c-.442-.016-.883-.034-1.329-.034a36.47,36.47,0,0,0-34.984,26.183,25.769,25.769,0,0,0-30.579,7.612h113.74a24.664,24.664,0,0,0,24.718-25.536Q1010.642,214.269,1010.626,214Z" transform="translate(-285.791 -179.599)" fill="#e6e6e6"/>
    <circle id="Ellipse_56" data-name="Ellipse 56" cx="9.794" cy="9.794" r="9.794" transform="translate(619.957 91.553)" fill="#e6e6e6"/>
    <circle id="Ellipse_57" data-name="Ellipse 57" cx="8.155" cy="8.155" r="8.155" transform="translate(651.168 70.101)" fill="#e6e6e6"/>
    <circle id="Ellipse_58" data-name="Ellipse 58" cx="9.794" cy="9.794" r="9.794" transform="translate(689.33 112.773)" fill="#e6e6e6"/>
    <circle id="Ellipse_59" data-name="Ellipse 59" cx="9.794" cy="9.794" r="9.794" transform="translate(615.06 157.661)" fill="#e6e6e6"/>
    <circle id="Ellipse_60" data-name="Ellipse 60" cx="9.794" cy="9.794" r="9.794" transform="translate(689.33 213.975)" fill="#e6e6e6"/>
    <path id="Path_109" data-name="Path 109" d="M982.094,682.329c0-.106.016-.21.016-.317a9.779,9.779,0,0,0-13.864-8.9,9.768,9.768,0,0,0-17,8.091c-.05,0-.1-.007-.148-.007a9.794,9.794,0,1,0,5.986,17.534,9.789,9.789,0,0,0,16.83.993,9.786,9.786,0,1,0,8.181-17.394Z" transform="translate(-298.494 -269.713)" fill="#e6e6e6"/>
    <circle id="Ellipse_61" data-name="Ellipse 61" cx="4.081" cy="4.081" r="4.081" transform="translate(704.021 180.513)" fill="#e6e6e6"/>
    <circle id="Ellipse_62" data-name="Ellipse 62" cx="4.081" cy="4.081" r="4.081" transform="translate(677.904 82.575)" fill="#e6e6e6"/>
    <circle id="Ellipse_63" data-name="Ellipse 63" cx="4.081" cy="4.081" r="4.081" transform="translate(664.029 183.778)" fill="#e6e6e6"/>
    <circle id="Ellipse_64" data-name="Ellipse 64" cx="4.081" cy="4.081" r="4.081" transform="translate(667.294 179.697)" fill="#e6e6e6"/>
    <circle id="Ellipse_65" data-name="Ellipse 65" cx="4.081" cy="4.081" r="4.081" transform="translate(669.742 175.616)" fill="#e6e6e6"/>
    <circle id="Ellipse_66" data-name="Ellipse 66" cx="4.081" cy="4.081" r="4.081" transform="translate(659.949 209.894)" fill="#e6e6e6"/>
    <circle id="Ellipse_67" data-name="Ellipse 67" cx="4.081" cy="4.081" r="4.081" transform="translate(720.344 255.599)" fill="#e6e6e6"/>
    <circle id="Ellipse_68" data-name="Ellipse 68" cx="4.081" cy="4.081" r="4.081" transform="translate(633.016 258.047)" fill="#e6e6e6"/>
    <circle id="Ellipse_69" data-name="Ellipse 69" cx="4.081" cy="4.081" r="4.081" transform="translate(637.913 132.36)" fill="#e6e6e6"/>
    <circle id="Ellipse_70" data-name="Ellipse 70" cx="4.081" cy="4.081" r="4.081" transform="translate(656.684 205.814)" fill="#e6e6e6"/>
    <circle id="Ellipse_71" data-name="Ellipse 71" cx="4.081" cy="4.081" r="4.081" transform="translate(652.603 199.284)" fill="#e6e6e6"/>
  </g>
</svg>
