<svg id="Group_10" data-name="Group 10" xmlns="http://www.w3.org/2000/svg" width="614.984" height="585.968" viewBox="0 0 614.984 585.968">
  <ellipse id="Ellipse_36" data-name="Ellipse 36" cx="280.002" cy="31.285" rx="280.002" ry="31.285" transform="translate(54.98 493.437)" fill="#3f3d56"/>
  <path id="Path_60" data-name="Path 60" d="M809.606,702.031l4.829,14.878s23.257,24.028,14.846,30.54S802,719.631,802,719.631l-3.478-16.8Z" transform="translate(-335.76 -211.926)" fill="#ffb8b8"/>
  <path id="Path_61" data-name="Path 61" d="M755.647,554.138l7.039-2.346s10.95,3.129,12.514,14.078,13.3,66.481,13.3,66.481,4.693,2.346,1.564,6.257S805.7,677.715,805.7,677.715l-14.86,7.039s-29.721-31.285-29.721-34.414.782-6.257.782-9.386-.782-3.129,0-5.475a25.156,25.156,0,0,0,.782-6.257l-5.475-12.514Z" transform="translate(-326.419 -179.193)" fill="#fff"/>
  <ellipse id="Ellipse_37" data-name="Ellipse 37" cx="70.718" cy="144.294" rx="70.718" ry="144.294" transform="translate(0 140.008)" fill="#e9aaee"/>
  <path id="Path_62" data-name="Path 62" d="M295.461,411.308c3.528-62.81,10.635-105.236,10.707-105.658l-1.542-.261c-.071.422-7.191,42.916-10.725,105.807-3.261,58.045-4.047,145.841,10.724,234.471l1.543-.257C291.421,556.931,292.207,469.268,295.461,411.308Z" transform="translate(-225.392 -125.509)" fill="#3f3d56"/>
  <rect id="Rectangle_21" data-name="Rectangle 21" width="72.523" height="1.564" transform="translate(69.985 289.262) rotate(-28.157)" fill="#3f3d56"/>
  <rect id="Rectangle_22" data-name="Rectangle 22" width="1.564" height="72.523" transform="translate(2.482 273.571) rotate(-61.858)" fill="#3f3d56"/>
  <ellipse id="Ellipse_38" data-name="Ellipse 38" cx="96.773" cy="197.455" rx="96.773" ry="197.455" transform="translate(141.436 0)" fill="#e9aaee"/>
  <path id="Path_63" data-name="Path 63" d="M508.735,290.091c4.828-85.965,14.556-144.031,14.654-144.607l-1.542-.261c-.1.577-9.839,58.711-14.672,144.756-4.462,79.416-5.538,199.535,14.672,320.793l1.543-.257C503.205,489.407,504.28,369.422,508.735,290.091Z" transform="translate(-271.702 -90.614)" fill="#3f3d56"/>
  <rect id="Rectangle_23" data-name="Rectangle 23" width="99.242" height="1.564" transform="translate(237.341 204.498) rotate(-28.157)" fill="#3f3d56"/>
  <rect id="Rectangle_24" data-name="Rectangle 24" width="1.564" height="99.242" transform="translate(144.97 182.518) rotate(-61.858)" fill="#3f3d56"/>
  <ellipse id="Ellipse_39" data-name="Ellipse 39" cx="36.157" cy="73.774" rx="36.157" ry="73.774" transform="translate(121.435 324.304)" fill="#da89e1"/>
  <path id="Path_64" data-name="Path 64" d="M398.544,572.658l.214.4,32.691-17.5-.738-1.379-32.1,17.181a550.518,550.518,0,0,1,5.483-55.074l-1.542-.261c-.08.472-4.4,26.535-5.929,64.248L364.25,562.946l-.738,1.38,32.691,17.5.39-.73c-1.226,31.127-.539,70.047,5.96,109.037l1.543-.257C397.011,647.364,396.855,604.933,398.544,572.658Z" transform="translate(-240.984 -171.401)" fill="#3f3d56"/>
  <path id="Path_65" data-name="Path 65" d="M740.86,453.6c-12.572-21.427-37.445-22.425-37.445-22.425s-24.237-3.126-39.785,29.507c-14.492,30.417-34.493,59.785-3.22,66.905l5.649-17.734,3.5,19.054a121.317,121.317,0,0,0,13.38.231c33.491-1.091,65.385.319,64.358-11.8C745.931,501.217,752.957,474.214,740.86,453.6Z" transform="translate(-302.062 -152.896)" fill="#2f2e41"/>
  <path id="Path_66" data-name="Path 66" d="M654.5,676.32a47.884,47.884,0,0,1-1.525,6.62c-.748,2.121-1.9,4.083-2.586,6.226-2.18,6.831.842,14.447,5.668,19.72a31.85,31.85,0,0,0,15.555,9.316,62.937,62.937,0,0,0,13.367,1.417c12.424.425,25.167.805,36.94-3.222a63.919,63.919,0,0,0,10.732-4.918,8.048,8.048,0,0,0,2.785-2.212,7.784,7.784,0,0,0,1.005-4.537c-.026-5.312-1.094-10.6-.841-15.9.14-2.939.686-5.876.417-8.806A16.2,16.2,0,0,0,723.7,666.026c-3.339-.723-6.8-.329-10.2,0a257.938,257.938,0,0,1-26.554,1.2c-9.059-.058-18.061-1.453-27.075-1.6-2.666-.043-2.612.786-3.46,3.388a63.834,63.834,0,0,0-1.914,7.307Z" transform="translate(-303.329 -203.993)" fill="#2f2e41"/>
  <path id="Path_67" data-name="Path 67" d="M603.582,673.553a26.586,26.586,0,0,0-7.456-.8,18.819,18.819,0,0,0-13.593,7.128,19.155,19.155,0,0,0-3.684,15,31.7,31.7,0,0,0,2.954,8.143c1.977,4.047,4.349,8.086,8.01,10.68a31.08,31.08,0,0,0,7.069,3.394l19.28,7.326c2.836,1.078,5.673,2.156,8.537,3.155a165.73,165.73,0,0,0,44.591,8.941,47.872,47.872,0,0,0,13.845-.708,4.5,4.5,0,0,0,2.835-1.545,4.929,4.929,0,0,0,.634-2.111l1.186-8.377a7.075,7.075,0,0,0-.1-3.531,6.73,6.73,0,0,0-3.2-3.046c-12.675-7.343-27.475-11.394-38.143-21.472-2.512-2.373-4.613-6.133-7.665-7.745-3.46-1.828-7.536-2.871-11.113-4.555C619.744,679.749,612.056,675.518,603.582,673.553Z" transform="translate(-287.837 -205.544)" fill="#2f2e41"/>
  <path id="Path_68" data-name="Path 68" d="M632.757,687.684c6.815,2.154,35.586,17.076,40.517,22.285-.661.24-23.089-12.437-23.762-12.641a134.75,134.75,0,0,1-18.078-6.426c-1.169-.545-7.592-3.108-7.3-4.6C624.461,684.629,631.547,687.3,632.757,687.684Z" transform="translate(-297.764 -208.381)" opacity="0.1"/>
  <path id="Path_69" data-name="Path 69" d="M736.076,754.889a1.592,1.592,0,0,0,1.08-.321,1.694,1.694,0,0,0,.337-1.254l-.032-11.413c-3.254-1.564-6.893-2.065-10.466-2.547l-16.668-2.247c.383.052-2.606,7.241-2.148,8.2.808,1.692,6.981,3.191,8.723,3.99C722.961,752.076,729.254,755.128,736.076,754.889Z" transform="translate(-316.067 -219.568)" fill="#ffb8b8"/>
  <path id="Path_70" data-name="Path 70" d="M674.135,740.9c-3.147.506-6.66.953-8.7,3.424-2.585,3.134-1.484,7.8-.251,11.687a5.047,5.047,0,0,0,1.072,2.127,5,5,0,0,0,3.31,1.035c2.87.183,5.924.327,8.432-1.093a36.97,36.97,0,0,0,3.276-2.456,20.914,20.914,0,0,1,6.022-2.777,60.435,60.435,0,0,1,12.089-2.513,18.659,18.659,0,0,0,4.762-.847,5.3,5.3,0,0,0,3.354-3.284c.581-2.074-.614-4.188-1.76-6.007a23.927,23.927,0,0,0-5.069-6.32c-3.106-2.433-4.642-.565-7.771.992A65.525,65.525,0,0,1,674.135,740.9Z" transform="translate(-306.422 -218.609)" fill="#ffb8b8"/>
  <path id="Path_71" data-name="Path 71" d="M655.888,744.778,635.9,738.82a26.253,26.253,0,0,0-7.436-1.454,8.888,8.888,0,0,0-6.829,2.786c-1.55,1.834-1.993,4.341-2.379,6.72l-.826,5.087a25.769,25.769,0,0,0-.463,7.812,8.647,8.647,0,0,0,3.97,6.436c2.765,1.522,6.154.778,9.241.142a99.782,99.782,0,0,1,18.937-2.048c2.392-.029,4.9,0,7.014-1.128a8.843,8.843,0,0,0,4.274-7.039C661.8,751.789,660.363,746.112,655.888,744.778Z" transform="translate(-296.399 -219.625)" fill="#2f2e41"/>
  <path id="Path_72" data-name="Path 72" d="M751.544,739.079c2.59-.458,4.877-1.943,7.359-2.819,3.494-1.234,7.28-1.234,10.982-1.22a7,7,0,0,1,3.937.8c1.631,1.1,2.049,3.286,2.326,5.242l1.673,11.8a18.676,18.676,0,0,1,.137,6.686c-.491,2.187-1.969,4.3-4.12,4.859-2.613.685-5.175-1-7.642-2.1-6.167-2.764-13.335-2.058-19.765-4.124a4.432,4.432,0,0,1-2.958-2.134,4.893,4.893,0,0,1-.23-2.039c.11-3.793-.683-8.973.449-12.6C744.709,738.163,748.652,739.079,751.544,739.079Z" transform="translate(-323.68 -219.117)" fill="#2f2e41"/>
  <path id="Path_73" data-name="Path 73" d="M784.784,667.414a34.408,34.408,0,0,1,12.224-.842c3.268.363,6.635,1.28,9.021,3.562,2.9,2.777,3.837,7.071,3.915,11.107a34.894,34.894,0,0,1-7.478,22.161,20.016,20.016,0,0,1-4.275,4.151,28.044,28.044,0,0,1-5.562,2.7l-43.176,17.177c-11.359,4.519-22.757,9.051-34.605,12.03a2.688,2.688,0,0,1-3.629-1.327,90.466,90.466,0,0,1-9.463-17.46,1.578,1.578,0,0,1-.122-1.308,1.552,1.552,0,0,1,.637-.547l30.539-17.7a30.876,30.876,0,0,0,6.216-4.32,15.562,15.562,0,0,0,3.191-4.481c.633-1.334.692-4.481,1.5-5.467.792-.965,3.5-1.042,4.751-1.422a42.853,42.853,0,0,0,5.172-1.972c6.831-3.083,12.915-7.561,19.463-11.171A49.7,49.7,0,0,1,784.784,667.414Z" transform="translate(-314.632 -204.155)" fill="#2f2e41"/>
  <path id="Path_74" data-name="Path 74" d="M772.181,683.666c-5.247,3.975-12.04,7.628-17.24,11.708-1.775,1.392-31.36,18.169-31.778,20.4,4.851.825,35.755-20.982,40.176-23.158a71.368,71.368,0,0,0,12.225-8.29c.99-.776,5.184-3.11,2.343-3.977C776.306,679.858,773.362,682.872,772.181,683.666Z" transform="translate(-319.342 -207.19)" opacity="0.1"/>
  <circle id="Ellipse_40" data-name="Ellipse 40" cx="29.721" cy="29.721" r="29.721" transform="translate(370.569 295.168)" fill="#ffb8b8"/>
  <path id="Path_75" data-name="Path 75" d="M723.971,521.7s-4.693,11.732,3.911,16.425-26.592,42.235-26.592,42.235L685.647,535s13.3-4.693,10.95-17.207Z" transform="translate(-311.168 -171.786)" fill="#ffb8b8"/>
  <path id="Path_76" data-name="Path 76" d="M696.139,556.67l18.942-20.911,25.64,13.089L736.81,641.14l-6.257,7.039s-26.592,23.464-67.263,3.911c0,0-14.078-11.732-13.3-29.721s-1.564-20.335-1.564-20.335l-.782-63.352,38.615-7.577Z" transform="translate(-302.889 -174.686)" fill="#fff"/>
  <path id="Path_77" data-name="Path 77" d="M592.609,691.031l-4.829,14.878s-23.257,24.028-14.845,30.541,27.284-27.819,27.284-27.819l3.478-16.8Z" transform="translate(-286.212 -209.53)" fill="#ffb8b8"/>
  <path id="Path_78" data-name="Path 78" d="M641.7,543.138l-7.039-2.346s-10.95,3.129-12.514,14.078-13.3,66.481-13.3,66.481-4.693,2.346-1.564,6.257-15.643,39.107-15.643,39.107l14.86,7.039s29.721-31.285,29.721-34.414-.782-6.257-.782-9.386.782-3.128,0-5.475a25.154,25.154,0,0,1-.782-6.257l5.475-12.514Z" transform="translate(-290.688 -176.797)" fill="#fff"/>
  <path id="Path_79" data-name="Path 79" d="M535.671,378.207,511.1,365.224l-33.934,5.311-7.021,31.278,17.477-.678,4.882-11.491v11.3l8.065-.313,4.681-18.294,2.925,19.475,28.669-.591Z" transform="translate(-102.43 -79.572)" fill="#2f2e41"/>
  <path id="Path_80" data-name="Path 80" d="M499.672,713.1v45.113h-137.8A45.115,45.115,0,0,1,406.988,713.1c12.923-4.028,27.862-5.311,44.068-4.888C466.346,708.6,482.763,710.518,499.672,713.1Z" transform="translate(-240.628 -213.256)" fill="#ff6584"/>
  <path id="Path_81" data-name="Path 81" d="M306.037,684.178h64.8a4.1,4.1,0,0,1,4.1,4.1h0a4.1,4.1,0,0,1-4.1,4.1h-64.8v-8.2Z" transform="translate(-66.677 -149.063)" fill="#3f3d56"/>
  <path id="Path_82" data-name="Path 82" d="M527.238,658.534l17.368-21.054a4.559,4.559,0,0,1,8.5.728l6.849,24.182Z" transform="translate(-276.655 -197.299)" fill="#3f3d56"/>
  <path id="Path_83" data-name="Path 83" d="M500.305,670.179l6.562-26.492a4.559,4.559,0,0,1,7.978-3.016l16.629,18.846Z" transform="translate(-270.788 -198.221)" fill="#ff6584"/>
  <path id="Path_84" data-name="Path 84" d="M155.024,696.762h13.123V724.65a13.123,13.123,0,0,1-13.123,13.123h0Z" transform="translate(-33.775 -151.805)" fill="#ff6584"/>
  <path id="Path_85" data-name="Path 85" d="M302.891,686.275h64.8a4.1,4.1,0,0,1,4.1,4.1h0a4.1,4.1,0,0,1-4.1,4.1h-64.8Z" transform="translate(-65.991 -149.52)" fill="#ff6584"/>
  <path id="Path_86" data-name="Path 86" d="M524.412,713.12v44.863a44.3,44.3,0,0,1-48.617-49.751C491.085,708.623,507.5,710.539,524.412,713.12Z" transform="translate(-265.367 -213.277)" opacity="0.2"/>
  <circle id="Ellipse_41" data-name="Ellipse 41" cx="44.292" cy="44.292" r="44.292" transform="translate(214.754 456.374)" fill="#ff6584"/>
  <ellipse id="Ellipse_42" data-name="Ellipse 42" cx="4.921" cy="11.483" rx="4.921" ry="11.483" transform="translate(296.775 492.464)" fill="#3f3d56"/>
  <ellipse id="Ellipse_43" data-name="Ellipse 43" cx="1.23" cy="2.871" rx="1.23" ry="2.871" transform="translate(288.573 489.183)" fill="#3f3d56"/>
  <ellipse id="Ellipse_44" data-name="Ellipse 44" cx="1.23" cy="2.871" rx="1.23" ry="2.871" transform="translate(297.596 483.441)" fill="#3f3d56"/>
  <path id="Path_87" data-name="Path 87" d="M532.621,656.352s-2.462-4.282-2.462-6.895" transform="translate(-277.292 -200.472)" fill="#3f3d56"/>
  <path id="Path_88" data-name="Path 88" d="M534.692,652.9s1.341-4.754,3.209-6.58" transform="translate(-278.279 -199.788)" fill="#3f3d56"/>
</svg>
