<svg id="Group_10" data-name="Group 10" xmlns="http://www.w3.org/2000/svg" width="836.496" height="677.911" viewBox="0 0 836.496 677.911">
  <path id="Path_1" data-name="Path 1" d="M420.907,291.522c-2.431,91.394,119.4,184.691,271.468,184.691S1086.62,296.034,971.6,291.522C749.981,282.828,674.034,191.045,696.256,125.98,736.052,9.455,425.694,111.567,420.907,291.522Z" transform="translate(-165.108 -76.322)" fill="#3f3d56"/>
  <path id="Path_2" data-name="Path 2" d="M504.539,157.1l-1.854-1.18,1.18-1.854-.506-.321L502.18,155.6l-1.854-1.18-.322.505,1.854,1.18-1.18,1.854.506.322,1.179-1.854,1.854,1.179Z" transform="translate(-46.461 -14.286)" fill="#6c63ff"/>
  <path id="Path_3" data-name="Path 3" d="M656.539,305.1l-1.854-1.18,1.18-1.854-.506-.321L654.18,303.6l-1.854-1.18-.322.505,1.854,1.18-1.18,1.854.506.322,1.179-1.854,1.854,1.179Z" transform="translate(-60.585 -28.039)" fill="#6c63ff"/>
  <path id="Path_4" data-name="Path 4" d="M410.539,287.1l-1.854-1.18,1.18-1.854-.506-.321L408.18,285.6l-1.854-1.18-.322.505,1.854,1.18-1.18,1.854.506.322,1.179-1.854,1.854,1.179Z" transform="translate(-37.727 -26.366)" fill="#6c63ff"/>
  <path id="Path_5" data-name="Path 5" d="M594.54,383.1l-1.854-1.18,1.18-1.854-.506-.321L592.18,381.6l-1.854-1.18-.322.505,1.854,1.18-1.18,1.854.506.322,1.179-1.854,1.854,1.179Z" transform="translate(-54.824 -35.287)" fill="#6c63ff"/>
  <path id="Path_6" data-name="Path 6" d="M423.539,346.1l-1.854-1.18,1.18-1.854-.506-.321L421.18,344.6l-1.854-1.18-.322.505,1.854,1.18-1.18,1.854.506.322,1.179-1.854,1.854,1.179Z" transform="translate(-38.935 -31.849)" fill="#6c63ff"/>
  <path id="Path_7" data-name="Path 7" d="M835.539,297.1l-1.854-1.18,1.18-1.854-.506-.321L833.18,295.6l-1.854-1.18-.322.505,1.854,1.18-1.18,1.854.506.322,1.179-1.854,1.854,1.179Z" transform="translate(-77.218 -27.295)" fill="#6c63ff"/>
  <path id="Path_8" data-name="Path 8" d="M381.539,176.1l-1.854-1.18,1.18-1.854-.506-.321L379.18,174.6l-1.854-1.18-.322.505,1.854,1.18-1.18,1.854.506.322,1.179-1.854,1.854,1.179Z" transform="translate(-35.032 -16.052)" fill="#6c63ff"/>
  <path id="Path_9" data-name="Path 9" d="M552.354,198.443l-2.6-1.651,1.652-2.6-.708-.45-1.652,2.6-2.6-1.652L546,195.4l2.6,1.651-1.652,2.6.708.451,1.652-2.6,2.6,1.652Z" transform="translate(-50.736 -18.003)" fill="#fff"/>
  <circle id="Ellipse_1" data-name="Ellipse 1" cx="2.721" cy="2.721" r="2.721" transform="translate(405.468 209.305)" fill="#6c63ff"/>
  <circle id="Ellipse_2" data-name="Ellipse 2" cx="2.721" cy="2.721" r="2.721" transform="translate(299.339 209.305)" fill="#6c63ff"/>
  <circle id="Ellipse_3" data-name="Ellipse 3" cx="2.721" cy="2.721" r="2.721" transform="translate(484.383 109.526)" fill="#6c63ff"/>
  <circle id="Ellipse_4" data-name="Ellipse 4" cx="2.721" cy="2.721" r="2.721" transform="translate(458.985 275.521)" fill="#6c63ff"/>
  <circle id="Ellipse_5" data-name="Ellipse 5" cx="1.814" cy="1.814" r="1.814" transform="translate(458.078 219.283)" fill="#6c63ff"/>
  <circle id="Ellipse_6" data-name="Ellipse 6" cx="1.814" cy="1.814" r="1.814" transform="translate(644.029 299.105)" fill="#ff6584"/>
  <circle id="Ellipse_7" data-name="Ellipse 7" cx="1.814" cy="1.814" r="1.814" transform="translate(366.463 200.234)" fill="#ff6584"/>
  <circle id="Ellipse_8" data-name="Ellipse 8" cx="1.814" cy="1.814" r="1.814" transform="translate(479.848 53.287)" fill="#ff6584"/>
  <circle id="Ellipse_9" data-name="Ellipse 9" cx="1.814" cy="1.814" r="1.814" transform="translate(405.468 137.646)" fill="#6c63ff"/>
  <circle id="Ellipse_10" data-name="Ellipse 10" cx="1.814" cy="1.814" r="1.814" transform="translate(428.145 76.871)" fill="#fff"/>
  <circle id="Ellipse_11" data-name="Ellipse 11" cx="2.721" cy="2.721" r="2.721" transform="translate(698.454 239.238)" fill="#6c63ff"/>
  <circle id="Ellipse_12" data-name="Ellipse 12" cx="2.721" cy="2.721" r="2.721" transform="translate(517.945 249.216)" fill="#6c63ff"/>
  <circle id="Ellipse_13" data-name="Ellipse 13" cx="9.071" cy="9.071" r="9.071" transform="translate(465.335 307.269)" fill="#6c63ff"/>
  <circle id="Ellipse_14" data-name="Ellipse 14" cx="2.721" cy="2.721" r="2.721" transform="translate(581.441 214.747)" fill="#fff"/>
  <path id="Path_10" data-name="Path 10" d="M230.59,796.936s-5.077,21.231-.462,22.154,27.231.625,32.769,1.548,17.077-.625,17.077-4.779-12-6.923-12-6.923-17.077-9.231-17.538-9.692S230.59,796.936,230.59,796.936Z" transform="translate(-147.204 -143.283)" fill="#2f2e41"/>
  <path id="Path_11" data-name="Path 11" d="M236.174,629.53s1.655,18.762,1.655,20.417-9.933,88.843-7.725,106.5-.2,23.3-.2,26.609,17.863,2.086,17.863,2.086l19.314-121.951-9.933-36.42Z" transform="translate(-147.352 -127.471)" fill="#2f2e41"/>
  <path id="Path_12" data-name="Path 12" d="M237.749,801.817s-4.615,16.615,0,17.538,27.231-1.057,32.769-.134,17.077,1.057,17.077-3.1-12-6.923-12-6.923-17.077-9.231-17.538-9.692S237.749,801.817,237.749,801.817Z" transform="translate(-147.901 -143.517)" fill="#2f2e41"/>
  <path id="Path_13" data-name="Path 13" d="M231.082,605.479s-6.622,16,1.1,24.28,16.555,24.832,16.555,25.935S233.29,766.61,235.5,773.783s1.655,11.588,1.1,12.692,5.518,7.174,12.14,7.174,16.555-4.966,17.658-9.381-1.655-42.49-1.1-49.663,22.625-121.951,19.866-124.71S231.082,605.479,231.082,605.479Z" transform="translate(-147.227 -125.492)" fill="#2f2e41"/>
  <circle id="Ellipse_15" data-name="Ellipse 15" cx="18.762" cy="18.762" r="18.762" transform="translate(107.032 315.546)" fill="#9f616a"/>
  <path id="Path_14" data-name="Path 14" d="M264.812,454.955s3.863,20.417,1.1,22.625,20.969,5.518,20.969,5.518,2.759-27.039,3.311-29.8S264.812,454.955,264.812,454.955Z" transform="translate(-150.607 -111.267)" fill="#9f616a"/>
  <path id="Path_15" data-name="Path 15" d="M286.775,482.892s3.559-19.443-23.48-13.925c0,0-24.688,20.243-23.584,39s-8.67,73.144-7.566,77.007-6.622,8.829-3.311,10.485,62.907,11.588,64.563,0-.552-40.834.552-46.353,0-51.871-3.311-57.389S286.775,482.892,286.775,482.892Z" transform="translate(-147.186 -112.715)" fill="#a4e243"/>
  <path id="Path_16" data-name="Path 16" d="M279.7,632.742S271.426,664.2,281.91,664.2s9.933-32.557,9.933-32.557Z" transform="translate(-151.702 -127.923)" fill="#9f616a"/>
  <path id="Path_17" data-name="Path 17" d="M281.8,445.486c-.239,1.582-2.683,2.24-6.269,1.931h-.005a30.066,30.066,0,0,1-4.5-.771c-2.238-.551-3.5,1.441-4.313,4.2-1.335,4.547-1.436,11.19-2.611,12.056-8.2,4.532-32.429-25.855-20.013-33.723,4.422-2.8,19.307-13.264,29.591-11.15s6.121,14.878,6.121,14.878.377,1.676.805,3.828a57.543,57.543,0,0,1,1.232,8.234,4.01,4.01,0,0,1-.034.519Z" transform="translate(-148.357 -108.047)" fill="#2f2e41"/>
  <path id="Path_18" data-name="Path 18" d="M285.107,490.5s-18.762-1.1-20.417,26.487-1.1,53.526-1.1,54.078,7.725,52.975,14.9,52.975,12.692-1.1,14.347-3.863-4.415-42.49-4.415-42.49-2.759-41.938,1.655-55.182S295.04,492.157,285.107,490.5Z" transform="translate(-150.485 -114.807)" fill="#a4e243"/>
  <path id="Path_19" data-name="Path 19" d="M124.446,451.653,119,510.613l18.142,40.818-11.792-41.725-.907-58.96" transform="translate(-11.058 -41.884)" opacity="0.1"/>
  <path id="Path_20" data-name="Path 20" d="M153.632,458.746l1.386,69.508L150,490.494Z" transform="translate(-13.939 -42.627)" opacity="0.1"/>
  <path id="Path_21" data-name="Path 21" d="M233.789,747.161H0v-1.91H234.135Z" transform="translate(0 -69.25)" fill="#3f3d56"/>
</svg>
